<?xml version="1.0" encoding="utf-8" standalone="no"?>
<!DOCTYPE svg PUBLIC "-//W3C//DTD SVG 1.1//EN"
  "http://www.w3.org/Graphics/SVG/1.1/DTD/svg11.dtd">
<!-- Created with matplotlib (http://matplotlib.org/) -->
<svg height="288pt" version="1.1" viewBox="0 0 432 288" width="432pt" xmlns="http://www.w3.org/2000/svg" xmlns:xlink="http://www.w3.org/1999/xlink">
 <defs>
  <style type="text/css">
*{stroke-linecap:butt;stroke-linejoin:round;}
  </style>
 </defs>
 <g id="figure_1">
  <g id="patch_1">
   <path d="
M0 288
L432 288
L432 0
L0 0
z
" style="fill:#ffffff;"/>
  </g>
  <g id="axes_1">
   <g id="patch_2">
    <path d="
M54 252
L388.8 252
L388.8 28.8
L54 28.8
z
" style="fill:#ffffff;"/>
   </g>
   <g id="patch_3">
    <path clip-path="url(#p124b8dd147)" d="
M55.674 252
L57.3396 252
L57.3396 228.341
L55.674 228.341
z
" style="fill:#0000ff;stroke:#000000;"/>
   </g>
   <g id="patch_4">
    <path clip-path="url(#p124b8dd147)" d="
M57.3396 252
L59.0052 252
L59.0052 223.341
L57.3396 223.341
z
" style="fill:#0000ff;stroke:#000000;"/>
   </g>
   <g id="patch_5">
    <path clip-path="url(#p124b8dd147)" d="
M59.0052 252
L60.6708 252
L60.6708 225.127
L59.0052 225.127
z
" style="fill:#0000ff;stroke:#000000;"/>
   </g>
   <g id="patch_6">
    <path clip-path="url(#p124b8dd147)" d="
M60.6708 252
L62.3364 252
L62.3364 226.02
L60.6708 226.02
z
" style="fill:#0000ff;stroke:#000000;"/>
   </g>
   <g id="patch_7">
    <path clip-path="url(#p124b8dd147)" d="
M62.3364 252
L64.0019 252
L64.0019 223.788
L62.3364 223.788
z
" style="fill:#0000ff;stroke:#000000;"/>
   </g>
   <g id="patch_8">
    <path clip-path="url(#p124b8dd147)" d="
M64.0019 252
L65.6675 252
L65.6675 226.287
L64.0019 226.287
z
" style="fill:#0000ff;stroke:#000000;"/>
   </g>
   <g id="patch_9">
    <path clip-path="url(#p124b8dd147)" d="
M65.6675 252
L67.3331 252
L67.3331 225.305
L65.6675 225.305
z
" style="fill:#0000ff;stroke:#000000;"/>
   </g>
   <g id="patch_10">
    <path clip-path="url(#p124b8dd147)" d="
M67.3331 252
L68.9987 252
L68.9987 224.234
L67.3331 224.234
z
" style="fill:#0000ff;stroke:#000000;"/>
   </g>
   <g id="patch_11">
    <path clip-path="url(#p124b8dd147)" d="
M68.9987 252
L70.6643 252
L70.6643 221.734
L68.9987 221.734
z
" style="fill:#0000ff;stroke:#000000;"/>
   </g>
   <g id="patch_12">
    <path clip-path="url(#p124b8dd147)" d="
M70.6643 252
L72.3299 252
L72.3299 225.841
L70.6643 225.841
z
" style="fill:#0000ff;stroke:#000000;"/>
   </g>
   <g id="patch_13">
    <path clip-path="url(#p124b8dd147)" d="
M72.3299 252
L73.9955 252
L73.9955 220.752
L72.3299 220.752
z
" style="fill:#0000ff;stroke:#000000;"/>
   </g>
   <g id="patch_14">
    <path clip-path="url(#p124b8dd147)" d="
M73.9955 252
L75.6611 252
L75.6611 226.377
L73.9955 226.377
z
" style="fill:#0000ff;stroke:#000000;"/>
   </g>
   <g id="patch_15">
    <path clip-path="url(#p124b8dd147)" d="
M75.6611 252
L77.3266 252
L77.3266 224.323
L75.6611 224.323
z
" style="fill:#0000ff;stroke:#000000;"/>
   </g>
   <g id="patch_16">
    <path clip-path="url(#p124b8dd147)" d="
M77.3266 252
L78.9922 252
L78.9922 226.823
L77.3266 226.823
z
" style="fill:#0000ff;stroke:#000000;"/>
   </g>
   <g id="patch_17">
    <path clip-path="url(#p124b8dd147)" d="
M78.9922 252
L80.6578 252
L80.6578 222.984
L78.9922 222.984
z
" style="fill:#0000ff;stroke:#000000;"/>
   </g>
   <g id="patch_18">
    <path clip-path="url(#p124b8dd147)" d="
M80.6578 252
L82.3234 252
L82.3234 224.323
L80.6578 224.323
z
" style="fill:#0000ff;stroke:#000000;"/>
   </g>
   <g id="patch_19">
    <path clip-path="url(#p124b8dd147)" d="
M82.3234 252
L83.989 252
L83.989 222.091
L82.3234 222.091
z
" style="fill:#0000ff;stroke:#000000;"/>
   </g>
   <g id="patch_20">
    <path clip-path="url(#p124b8dd147)" d="
M83.989 252
L85.6546 252
L85.6546 220.931
L83.989 220.931
z
" style="fill:#0000ff;stroke:#000000;"/>
   </g>
   <g id="patch_21">
    <path clip-path="url(#p124b8dd147)" d="
M85.6546 252
L87.3202 252
L87.3202 221.913
L85.6546 221.913
z
" style="fill:#0000ff;stroke:#000000;"/>
   </g>
   <g id="patch_22">
    <path clip-path="url(#p124b8dd147)" d="
M87.3202 252
L88.9858 252
L88.9858 222.27
L87.3202 222.27
z
" style="fill:#0000ff;stroke:#000000;"/>
   </g>
   <g id="patch_23">
    <path clip-path="url(#p124b8dd147)" d="
M88.9858 252
L90.6513 252
L90.6513 222.716
L88.9858 222.716
z
" style="fill:#0000ff;stroke:#000000;"/>
   </g>
   <g id="patch_24">
    <path clip-path="url(#p124b8dd147)" d="
M90.6513 252
L92.3169 252
L92.3169 221.913
L90.6513 221.913
z
" style="fill:#0000ff;stroke:#000000;"/>
   </g>
   <g id="patch_25">
    <path clip-path="url(#p124b8dd147)" d="
M92.3169 252
L93.9825 252
L93.9825 225.037
L92.3169 225.037
z
" style="fill:#0000ff;stroke:#000000;"/>
   </g>
   <g id="patch_26">
    <path clip-path="url(#p124b8dd147)" d="
M93.9825 252
L95.6481 252
L95.6481 219.859
L93.9825 219.859
z
" style="fill:#0000ff;stroke:#000000;"/>
   </g>
   <g id="patch_27">
    <path clip-path="url(#p124b8dd147)" d="
M95.6481 252
L97.3137 252
L97.3137 220.127
L95.6481 220.127
z
" style="fill:#0000ff;stroke:#000000;"/>
   </g>
   <g id="patch_28">
    <path clip-path="url(#p124b8dd147)" d="
M97.3137 252
L98.9793 252
L98.9793 222.002
L97.3137 222.002
z
" style="fill:#0000ff;stroke:#000000;"/>
   </g>
   <g id="patch_29">
    <path clip-path="url(#p124b8dd147)" d="
M98.9793 252
L100.645 252
L100.645 221.734
L98.9793 221.734
z
" style="fill:#0000ff;stroke:#000000;"/>
   </g>
   <g id="patch_30">
    <path clip-path="url(#p124b8dd147)" d="
M100.645 252
L102.31 252
L102.31 224.055
L100.645 224.055
z
" style="fill:#0000ff;stroke:#000000;"/>
   </g>
   <g id="patch_31">
    <path clip-path="url(#p124b8dd147)" d="
M102.31 252
L103.976 252
L103.976 220.931
L102.31 220.931
z
" style="fill:#0000ff;stroke:#000000;"/>
   </g>
   <g id="patch_32">
    <path clip-path="url(#p124b8dd147)" d="
M103.976 252
L105.642 252
L105.642 221.109
L103.976 221.109
z
" style="fill:#0000ff;stroke:#000000;"/>
   </g>
   <g id="patch_33">
    <path clip-path="url(#p124b8dd147)" d="
M105.642 252
L107.307 252
L107.307 217.359
L105.642 217.359
z
" style="fill:#0000ff;stroke:#000000;"/>
   </g>
   <g id="patch_34">
    <path clip-path="url(#p124b8dd147)" d="
M107.307 252
L108.973 252
L108.973 219.502
L107.307 219.502
z
" style="fill:#0000ff;stroke:#000000;"/>
   </g>
   <g id="patch_35">
    <path clip-path="url(#p124b8dd147)" d="
M108.973 252
L110.638 252
L110.638 219.859
L108.973 219.859
z
" style="fill:#0000ff;stroke:#000000;"/>
   </g>
   <g id="patch_36">
    <path clip-path="url(#p124b8dd147)" d="
M110.638 252
L112.304 252
L112.304 219.859
L110.638 219.859
z
" style="fill:#0000ff;stroke:#000000;"/>
   </g>
   <g id="patch_37">
    <path clip-path="url(#p124b8dd147)" d="
M112.304 252
L113.97 252
L113.97 217.359
L112.304 217.359
z
" style="fill:#0000ff;stroke:#000000;"/>
   </g>
   <g id="patch_38">
    <path clip-path="url(#p124b8dd147)" d="
M113.97 252
L115.635 252
L115.635 218.699
L113.97 218.699
z
" style="fill:#0000ff;stroke:#000000;"/>
   </g>
   <g id="patch_39">
    <path clip-path="url(#p124b8dd147)" d="
M115.635 252
L117.301 252
L117.301 219.324
L115.635 219.324
z
" style="fill:#0000ff;stroke:#000000;"/>
   </g>
   <g id="patch_40">
    <path clip-path="url(#p124b8dd147)" d="
M117.301 252
L118.966 252
L118.966 216.199
L117.301 216.199
z
" style="fill:#0000ff;stroke:#000000;"/>
   </g>
   <g id="patch_41">
    <path clip-path="url(#p124b8dd147)" d="
M118.966 252
L120.632 252
L120.632 214.056
L118.966 214.056
z
" style="fill:#0000ff;stroke:#000000;"/>
   </g>
   <g id="patch_42">
    <path clip-path="url(#p124b8dd147)" d="
M120.632 252
L122.298 252
L122.298 216.734
L120.632 216.734
z
" style="fill:#0000ff;stroke:#000000;"/>
   </g>
   <g id="patch_43">
    <path clip-path="url(#p124b8dd147)" d="
M122.298 252
L123.963 252
L123.963 217.716
L122.298 217.716
z
" style="fill:#0000ff;stroke:#000000;"/>
   </g>
   <g id="patch_44">
    <path clip-path="url(#p124b8dd147)" d="
M123.963 252
L125.629 252
L125.629 215.931
L123.963 215.931
z
" style="fill:#0000ff;stroke:#000000;"/>
   </g>
   <g id="patch_45">
    <path clip-path="url(#p124b8dd147)" d="
M125.629 252
L127.294 252
L127.294 211.288
L125.629 211.288
z
" style="fill:#0000ff;stroke:#000000;"/>
   </g>
   <g id="patch_46">
    <path clip-path="url(#p124b8dd147)" d="
M127.294 252
L128.96 252
L128.96 211.467
L127.294 211.467
z
" style="fill:#0000ff;stroke:#000000;"/>
   </g>
   <g id="patch_47">
    <path clip-path="url(#p124b8dd147)" d="
M128.96 252
L130.625 252
L130.625 215.038
L128.96 215.038
z
" style="fill:#0000ff;stroke:#000000;"/>
   </g>
   <g id="patch_48">
    <path clip-path="url(#p124b8dd147)" d="
M130.625 252
L132.291 252
L132.291 212.895
L130.625 212.895
z
" style="fill:#0000ff;stroke:#000000;"/>
   </g>
   <g id="patch_49">
    <path clip-path="url(#p124b8dd147)" d="
M132.291 252
L133.957 252
L133.957 214.949
L132.291 214.949
z
" style="fill:#0000ff;stroke:#000000;"/>
   </g>
   <g id="patch_50">
    <path clip-path="url(#p124b8dd147)" d="
M133.957 252
L135.622 252
L135.622 211.824
L133.957 211.824
z
" style="fill:#0000ff;stroke:#000000;"/>
   </g>
   <g id="patch_51">
    <path clip-path="url(#p124b8dd147)" d="
M135.622 252
L137.288 252
L137.288 214.86
L135.622 214.86
z
" style="fill:#0000ff;stroke:#000000;"/>
   </g>
   <g id="patch_52">
    <path clip-path="url(#p124b8dd147)" d="
M137.288 252
L138.953 252
L138.953 210.842
L137.288 210.842
z
" style="fill:#0000ff;stroke:#000000;"/>
   </g>
   <g id="patch_53">
    <path clip-path="url(#p124b8dd147)" d="
M138.953 252
L140.619 252
L140.619 211.199
L138.953 211.199
z
" style="fill:#0000ff;stroke:#000000;"/>
   </g>
   <g id="patch_54">
    <path clip-path="url(#p124b8dd147)" d="
M140.619 252
L142.285 252
L142.285 210.038
L140.619 210.038
z
" style="fill:#0000ff;stroke:#000000;"/>
   </g>
   <g id="patch_55">
    <path clip-path="url(#p124b8dd147)" d="
M142.285 252
L143.95 252
L143.95 212.895
L142.285 212.895
z
" style="fill:#0000ff;stroke:#000000;"/>
   </g>
   <g id="patch_56">
    <path clip-path="url(#p124b8dd147)" d="
M143.95 252
L145.616 252
L145.616 209.503
L143.95 209.503
z
" style="fill:#0000ff;stroke:#000000;"/>
   </g>
   <g id="patch_57">
    <path clip-path="url(#p124b8dd147)" d="
M145.616 252
L147.281 252
L147.281 208.342
L145.616 208.342
z
" style="fill:#0000ff;stroke:#000000;"/>
   </g>
   <g id="patch_58">
    <path clip-path="url(#p124b8dd147)" d="
M147.281 252
L148.947 252
L148.947 209.949
L147.281 209.949
z
" style="fill:#0000ff;stroke:#000000;"/>
   </g>
   <g id="patch_59">
    <path clip-path="url(#p124b8dd147)" d="
M148.947 252
L150.613 252
L150.613 206.467
L148.947 206.467
z
" style="fill:#0000ff;stroke:#000000;"/>
   </g>
   <g id="patch_60">
    <path clip-path="url(#p124b8dd147)" d="
M150.613 252
L152.278 252
L152.278 205.307
L150.613 205.307
z
" style="fill:#0000ff;stroke:#000000;"/>
   </g>
   <g id="patch_61">
    <path clip-path="url(#p124b8dd147)" d="
M152.278 252
L153.944 252
L153.944 200.039
L152.278 200.039
z
" style="fill:#0000ff;stroke:#000000;"/>
   </g>
   <g id="patch_62">
    <path clip-path="url(#p124b8dd147)" d="
M153.944 252
L155.609 252
L155.609 202.807
L153.944 202.807
z
" style="fill:#0000ff;stroke:#000000;"/>
   </g>
   <g id="patch_63">
    <path clip-path="url(#p124b8dd147)" d="
M155.609 252
L157.275 252
L157.275 202.45
L155.609 202.45
z
" style="fill:#0000ff;stroke:#000000;"/>
   </g>
   <g id="patch_64">
    <path clip-path="url(#p124b8dd147)" d="
M157.275 252
L158.94 252
L158.94 199.95
L157.275 199.95
z
" style="fill:#0000ff;stroke:#000000;"/>
   </g>
   <g id="patch_65">
    <path clip-path="url(#p124b8dd147)" d="
M158.94 252
L160.606 252
L160.606 199.325
L158.94 199.325
z
" style="fill:#0000ff;stroke:#000000;"/>
   </g>
   <g id="patch_66">
    <path clip-path="url(#p124b8dd147)" d="
M160.606 252
L162.272 252
L162.272 202.182
L160.606 202.182
z
" style="fill:#0000ff;stroke:#000000;"/>
   </g>
   <g id="patch_67">
    <path clip-path="url(#p124b8dd147)" d="
M162.272 252
L163.937 252
L163.937 197.718
L162.272 197.718
z
" style="fill:#0000ff;stroke:#000000;"/>
   </g>
   <g id="patch_68">
    <path clip-path="url(#p124b8dd147)" d="
M163.937 252
L165.603 252
L165.603 200.575
L163.937 200.575
z
" style="fill:#0000ff;stroke:#000000;"/>
   </g>
   <g id="patch_69">
    <path clip-path="url(#p124b8dd147)" d="
M165.603 252
L167.268 252
L167.268 199.236
L165.603 199.236
z
" style="fill:#0000ff;stroke:#000000;"/>
   </g>
   <g id="patch_70">
    <path clip-path="url(#p124b8dd147)" d="
M167.268 252
L168.934 252
L168.934 194.147
L167.268 194.147
z
" style="fill:#0000ff;stroke:#000000;"/>
   </g>
   <g id="patch_71">
    <path clip-path="url(#p124b8dd147)" d="
M168.934 252
L170.6 252
L170.6 193.879
L168.934 193.879
z
" style="fill:#0000ff;stroke:#000000;"/>
   </g>
   <g id="patch_72">
    <path clip-path="url(#p124b8dd147)" d="
M170.6 252
L172.265 252
L172.265 192.45
L170.6 192.45
z
" style="fill:#0000ff;stroke:#000000;"/>
   </g>
   <g id="patch_73">
    <path clip-path="url(#p124b8dd147)" d="
M172.265 252
L173.931 252
L173.931 194.772
L172.265 194.772
z
" style="fill:#0000ff;stroke:#000000;"/>
   </g>
   <g id="patch_74">
    <path clip-path="url(#p124b8dd147)" d="
M173.931 252
L175.596 252
L175.596 191.825
L173.931 191.825
z
" style="fill:#0000ff;stroke:#000000;"/>
   </g>
   <g id="patch_75">
    <path clip-path="url(#p124b8dd147)" d="
M175.596 252
L177.262 252
L177.262 188.343
L175.596 188.343
z
" style="fill:#0000ff;stroke:#000000;"/>
   </g>
   <g id="patch_76">
    <path clip-path="url(#p124b8dd147)" d="
M177.262 252
L178.928 252
L178.928 187.272
L177.262 187.272
z
" style="fill:#0000ff;stroke:#000000;"/>
   </g>
   <g id="patch_77">
    <path clip-path="url(#p124b8dd147)" d="
M178.928 252
L180.593 252
L180.593 185.844
L178.928 185.844
z
" style="fill:#0000ff;stroke:#000000;"/>
   </g>
   <g id="patch_78">
    <path clip-path="url(#p124b8dd147)" d="
M180.593 252
L182.259 252
L182.259 179.326
L180.593 179.326
z
" style="fill:#0000ff;stroke:#000000;"/>
   </g>
   <g id="patch_79">
    <path clip-path="url(#p124b8dd147)" d="
M182.259 252
L183.924 252
L183.924 179.058
L182.259 179.058
z
" style="fill:#0000ff;stroke:#000000;"/>
   </g>
   <g id="patch_80">
    <path clip-path="url(#p124b8dd147)" d="
M183.924 252
L185.59 252
L185.59 175.308
L183.924 175.308
z
" style="fill:#0000ff;stroke:#000000;"/>
   </g>
   <g id="patch_81">
    <path clip-path="url(#p124b8dd147)" d="
M185.59 252
L187.255 252
L187.255 174.505
L185.59 174.505
z
" style="fill:#0000ff;stroke:#000000;"/>
   </g>
   <g id="patch_82">
    <path clip-path="url(#p124b8dd147)" d="
M187.255 252
L188.921 252
L188.921 173.701
L187.255 173.701
z
" style="fill:#0000ff;stroke:#000000;"/>
   </g>
   <g id="patch_83">
    <path clip-path="url(#p124b8dd147)" d="
M188.921 252
L190.587 252
L190.587 171.559
L188.921 171.559
z
" style="fill:#0000ff;stroke:#000000;"/>
   </g>
   <g id="patch_84">
    <path clip-path="url(#p124b8dd147)" d="
M190.587 252
L192.252 252
L192.252 165.041
L190.587 165.041
z
" style="fill:#0000ff;stroke:#000000;"/>
   </g>
   <g id="patch_85">
    <path clip-path="url(#p124b8dd147)" d="
M192.252 252
L193.918 252
L193.918 169.952
L192.252 169.952
z
" style="fill:#0000ff;stroke:#000000;"/>
   </g>
   <g id="patch_86">
    <path clip-path="url(#p124b8dd147)" d="
M193.918 252
L195.583 252
L195.583 170.398
L193.918 170.398
z
" style="fill:#0000ff;stroke:#000000;"/>
   </g>
   <g id="patch_87">
    <path clip-path="url(#p124b8dd147)" d="
M195.583 252
L197.249 252
L197.249 160.488
L195.583 160.488
z
" style="fill:#0000ff;stroke:#000000;"/>
   </g>
   <g id="patch_88">
    <path clip-path="url(#p124b8dd147)" d="
M197.249 252
L198.915 252
L198.915 161.024
L197.249 161.024
z
" style="fill:#0000ff;stroke:#000000;"/>
   </g>
   <g id="patch_89">
    <path clip-path="url(#p124b8dd147)" d="
M198.915 252
L200.58 252
L200.58 164.684
L198.915 164.684
z
" style="fill:#0000ff;stroke:#000000;"/>
   </g>
   <g id="patch_90">
    <path clip-path="url(#p124b8dd147)" d="
M200.58 252
L202.246 252
L202.246 152.453
L200.58 152.453
z
" style="fill:#0000ff;stroke:#000000;"/>
   </g>
   <g id="patch_91">
    <path clip-path="url(#p124b8dd147)" d="
M202.246 252
L203.911 252
L203.911 161.292
L202.246 161.292
z
" style="fill:#0000ff;stroke:#000000;"/>
   </g>
   <g id="patch_92">
    <path clip-path="url(#p124b8dd147)" d="
M203.911 252
L205.577 252
L205.577 157.095
L203.911 157.095
z
" style="fill:#0000ff;stroke:#000000;"/>
   </g>
   <g id="patch_93">
    <path clip-path="url(#p124b8dd147)" d="
M205.577 252
L207.243 252
L207.243 153.435
L205.577 153.435
z
" style="fill:#0000ff;stroke:#000000;"/>
   </g>
   <g id="patch_94">
    <path clip-path="url(#p124b8dd147)" d="
M207.243 252
L208.908 252
L208.908 153.524
L207.243 153.524
z
" style="fill:#0000ff;stroke:#000000;"/>
   </g>
   <g id="patch_95">
    <path clip-path="url(#p124b8dd147)" d="
M208.908 252
L210.574 252
L210.574 153.971
L208.908 153.971
z
" style="fill:#0000ff;stroke:#000000;"/>
   </g>
   <g id="patch_96">
    <path clip-path="url(#p124b8dd147)" d="
M210.574 252
L212.239 252
L212.239 156.56
L210.574 156.56
z
" style="fill:#0000ff;stroke:#000000;"/>
   </g>
   <g id="patch_97">
    <path clip-path="url(#p124b8dd147)" d="
M212.239 252
L213.905 252
L213.905 151.828
L212.239 151.828
z
" style="fill:#0000ff;stroke:#000000;"/>
   </g>
   <g id="patch_98">
    <path clip-path="url(#p124b8dd147)" d="
M213.905 252
L215.57 252
L215.57 149.06
L213.905 149.06
z
" style="fill:#0000ff;stroke:#000000;"/>
   </g>
   <g id="patch_99">
    <path clip-path="url(#p124b8dd147)" d="
M215.57 252
L217.236 252
L217.236 150.132
L215.57 150.132
z
" style="fill:#0000ff;stroke:#000000;"/>
   </g>
   <g id="patch_100">
    <path clip-path="url(#p124b8dd147)" d="
M217.236 252
L218.902 252
L218.902 143.971
L217.236 143.971
z
" style="fill:#0000ff;stroke:#000000;"/>
   </g>
   <g id="patch_101">
    <path clip-path="url(#p124b8dd147)" d="
M218.902 252
L220.567 252
L220.567 142.364
L218.902 142.364
z
" style="fill:#0000ff;stroke:#000000;"/>
   </g>
   <g id="patch_102">
    <path clip-path="url(#p124b8dd147)" d="
M220.567 252
L222.233 252
L222.233 130.758
L220.567 130.758
z
" style="fill:#0000ff;stroke:#000000;"/>
   </g>
   <g id="patch_103">
    <path clip-path="url(#p124b8dd147)" d="
M222.233 252
L223.898 252
L223.898 132.186
L222.233 132.186
z
" style="fill:#0000ff;stroke:#000000;"/>
   </g>
   <g id="patch_104">
    <path clip-path="url(#p124b8dd147)" d="
M223.898 252
L225.564 252
L225.564 126.204
L223.898 126.204
z
" style="fill:#0000ff;stroke:#000000;"/>
   </g>
   <g id="patch_105">
    <path clip-path="url(#p124b8dd147)" d="
M225.564 252
L227.23 252
L227.23 135.311
L225.564 135.311
z
" style="fill:#0000ff;stroke:#000000;"/>
   </g>
   <g id="patch_106">
    <path clip-path="url(#p124b8dd147)" d="
M227.23 252
L228.895 252
L228.895 133.972
L227.23 133.972
z
" style="fill:#0000ff;stroke:#000000;"/>
   </g>
   <g id="patch_107">
    <path clip-path="url(#p124b8dd147)" d="
M228.895 252
L230.561 252
L230.561 139.686
L228.895 139.686
z
" style="fill:#0000ff;stroke:#000000;"/>
   </g>
   <g id="patch_108">
    <path clip-path="url(#p124b8dd147)" d="
M230.561 252
L232.226 252
L232.226 134.418
L230.561 134.418
z
" style="fill:#0000ff;stroke:#000000;"/>
   </g>
   <g id="patch_109">
    <path clip-path="url(#p124b8dd147)" d="
M232.226 252
L233.892 252
L233.892 141.025
L232.226 141.025
z
" style="fill:#0000ff;stroke:#000000;"/>
   </g>
   <g id="patch_110">
    <path clip-path="url(#p124b8dd147)" d="
M233.892 252
L235.557 252
L235.557 145.043
L233.892 145.043
z
" style="fill:#0000ff;stroke:#000000;"/>
   </g>
   <g id="patch_111">
    <path clip-path="url(#p124b8dd147)" d="
M235.557 252
L237.223 252
L237.223 140.668
L235.557 140.668
z
" style="fill:#0000ff;stroke:#000000;"/>
   </g>
   <g id="patch_112">
    <path clip-path="url(#p124b8dd147)" d="
M237.223 252
L238.889 252
L238.889 143.703
L237.223 143.703
z
" style="fill:#0000ff;stroke:#000000;"/>
   </g>
   <g id="patch_113">
    <path clip-path="url(#p124b8dd147)" d="
M238.889 252
L240.554 252
L240.554 144.239
L238.889 144.239
z
" style="fill:#0000ff;stroke:#000000;"/>
   </g>
   <g id="patch_114">
    <path clip-path="url(#p124b8dd147)" d="
M240.554 252
L242.22 252
L242.22 141.739
L240.554 141.739
z
" style="fill:#0000ff;stroke:#000000;"/>
   </g>
   <g id="patch_115">
    <path clip-path="url(#p124b8dd147)" d="
M242.22 252
L243.885 252
L243.885 150.935
L242.22 150.935
z
" style="fill:#0000ff;stroke:#000000;"/>
   </g>
   <g id="patch_116">
    <path clip-path="url(#p124b8dd147)" d="
M243.885 252
L245.551 252
L245.551 159.327
L243.885 159.327
z
" style="fill:#0000ff;stroke:#000000;"/>
   </g>
   <g id="patch_117">
    <path clip-path="url(#p124b8dd147)" d="
M245.551 252
L247.217 252
L247.217 171.112
L245.551 171.112
z
" style="fill:#0000ff;stroke:#000000;"/>
   </g>
   <g id="patch_118">
    <path clip-path="url(#p124b8dd147)" d="
M247.217 252
L248.882 252
L248.882 186.915
L247.217 186.915
z
" style="fill:#0000ff;stroke:#000000;"/>
   </g>
   <g id="patch_119">
    <path clip-path="url(#p124b8dd147)" d="
M248.882 252
L250.548 252
L250.548 192.093
L248.882 192.093
z
" style="fill:#0000ff;stroke:#000000;"/>
   </g>
   <g id="patch_120">
    <path clip-path="url(#p124b8dd147)" d="
M250.548 252
L252.213 252
L252.213 191.2
L250.548 191.2
z
" style="fill:#0000ff;stroke:#000000;"/>
   </g>
   <g id="patch_121">
    <path clip-path="url(#p124b8dd147)" d="
M252.213 252
L253.879 252
L253.879 165.666
L252.213 165.666
z
" style="fill:#0000ff;stroke:#000000;"/>
   </g>
   <g id="patch_122">
    <path clip-path="url(#p124b8dd147)" d="
M253.879 252
L255.545 252
L255.545 140.043
L253.879 140.043
z
" style="fill:#0000ff;stroke:#000000;"/>
   </g>
   <g id="patch_123">
    <path clip-path="url(#p124b8dd147)" d="
M255.545 252
L257.21 252
L257.21 139.954
L255.545 139.954
z
" style="fill:#0000ff;stroke:#000000;"/>
   </g>
   <g id="patch_124">
    <path clip-path="url(#p124b8dd147)" d="
M257.21 252
L258.876 252
L258.876 149.596
L257.21 149.596
z
" style="fill:#0000ff;stroke:#000000;"/>
   </g>
   <g id="patch_125">
    <path clip-path="url(#p124b8dd147)" d="
M258.876 252
L260.541 252
L260.541 149.417
L258.876 149.417
z
" style="fill:#0000ff;stroke:#000000;"/>
   </g>
   <g id="patch_126">
    <path clip-path="url(#p124b8dd147)" d="
M260.541 252
L262.207 252
L262.207 145.043
L260.541 145.043
z
" style="fill:#0000ff;stroke:#000000;"/>
   </g>
   <g id="patch_127">
    <path clip-path="url(#p124b8dd147)" d="
M262.207 252
L263.872 252
L263.872 132.097
L262.207 132.097
z
" style="fill:#0000ff;stroke:#000000;"/>
   </g>
   <g id="patch_128">
    <path clip-path="url(#p124b8dd147)" d="
M263.872 252
L265.538 252
L265.538 131.204
L263.872 131.204
z
" style="fill:#0000ff;stroke:#000000;"/>
   </g>
   <g id="patch_129">
    <path clip-path="url(#p124b8dd147)" d="
M265.538 252
L267.204 252
L267.204 123.705
L265.538 123.705
z
" style="fill:#0000ff;stroke:#000000;"/>
   </g>
   <g id="patch_130">
    <path clip-path="url(#p124b8dd147)" d="
M267.204 252
L268.869 252
L268.869 110.134
L267.204 110.134
z
" style="fill:#0000ff;stroke:#000000;"/>
   </g>
   <g id="patch_131">
    <path clip-path="url(#p124b8dd147)" d="
M268.869 252
L270.535 252
L270.535 116.473
L268.869 116.473
z
" style="fill:#0000ff;stroke:#000000;"/>
   </g>
   <g id="patch_132">
    <path clip-path="url(#p124b8dd147)" d="
M270.535 252
L272.2 252
L272.2 122.901
L270.535 122.901
z
" style="fill:#0000ff;stroke:#000000;"/>
   </g>
   <g id="patch_133">
    <path clip-path="url(#p124b8dd147)" d="
M272.2 252
L273.866 252
L273.866 147.9
L272.2 147.9
z
" style="fill:#0000ff;stroke:#000000;"/>
   </g>
   <g id="patch_134">
    <path clip-path="url(#p124b8dd147)" d="
M273.866 252
L275.532 252
L275.532 155.31
L273.866 155.31
z
" style="fill:#0000ff;stroke:#000000;"/>
   </g>
   <g id="patch_135">
    <path clip-path="url(#p124b8dd147)" d="
M275.532 252
L277.197 252
L277.197 158.077
L275.532 158.077
z
" style="fill:#0000ff;stroke:#000000;"/>
   </g>
   <g id="patch_136">
    <path clip-path="url(#p124b8dd147)" d="
M277.197 252
L278.863 252
L278.863 137.007
L277.197 137.007
z
" style="fill:#0000ff;stroke:#000000;"/>
   </g>
   <g id="patch_137">
    <path clip-path="url(#p124b8dd147)" d="
M278.863 252
L280.528 252
L280.528 128.258
L278.863 128.258
z
" style="fill:#0000ff;stroke:#000000;"/>
   </g>
   <g id="patch_138">
    <path clip-path="url(#p124b8dd147)" d="
M280.528 252
L282.194 252
L282.194 128.169
L280.528 128.169
z
" style="fill:#0000ff;stroke:#000000;"/>
   </g>
   <g id="patch_139">
    <path clip-path="url(#p124b8dd147)" d="
M282.194 252
L283.86 252
L283.86 120.312
L282.194 120.312
z
" style="fill:#0000ff;stroke:#000000;"/>
   </g>
   <g id="patch_140">
    <path clip-path="url(#p124b8dd147)" d="
M283.86 252
L285.525 252
L285.525 105.224
L283.86 105.224
z
" style="fill:#0000ff;stroke:#000000;"/>
   </g>
   <g id="patch_141">
    <path clip-path="url(#p124b8dd147)" d="
M285.525 252
L287.191 252
L287.191 91.6531
L285.525 91.6531
z
" style="fill:#0000ff;stroke:#000000;"/>
   </g>
   <g id="patch_142">
    <path clip-path="url(#p124b8dd147)" d="
M287.191 252
L288.856 252
L288.856 78.3504
L287.191 78.3504
z
" style="fill:#0000ff;stroke:#000000;"/>
   </g>
   <g id="patch_143">
    <path clip-path="url(#p124b8dd147)" d="
M288.856 252
L290.522 252
L290.522 76.2077
L288.856 76.2077
z
" style="fill:#0000ff;stroke:#000000;"/>
   </g>
   <g id="patch_144">
    <path clip-path="url(#p124b8dd147)" d="
M290.522 252
L292.187 252
L292.187 83.0822
L290.522 83.0822
z
" style="fill:#0000ff;stroke:#000000;"/>
   </g>
   <g id="patch_145">
    <path clip-path="url(#p124b8dd147)" d="
M292.187 252
L293.853 252
L293.853 70.583
L292.187 70.583
z
" style="fill:#0000ff;stroke:#000000;"/>
   </g>
   <g id="patch_146">
    <path clip-path="url(#p124b8dd147)" d="
M293.853 252
L295.519 252
L295.519 67.1904
L293.853 67.1904
z
" style="fill:#0000ff;stroke:#000000;"/>
   </g>
   <g id="patch_147">
    <path clip-path="url(#p124b8dd147)" d="
M295.519 252
L297.184 252
L297.184 122.187
L295.519 122.187
z
" style="fill:#0000ff;stroke:#000000;"/>
   </g>
   <g id="patch_148">
    <path clip-path="url(#p124b8dd147)" d="
M297.184 252
L298.85 252
L298.85 120.044
L297.184 120.044
z
" style="fill:#0000ff;stroke:#000000;"/>
   </g>
   <g id="patch_149">
    <path clip-path="url(#p124b8dd147)" d="
M298.85 252
L300.515 252
L300.515 96.0278
L298.85 96.0278
z
" style="fill:#0000ff;stroke:#000000;"/>
   </g>
   <g id="patch_150">
    <path clip-path="url(#p124b8dd147)" d="
M300.515 252
L302.181 252
L302.181 93.528
L300.515 93.528
z
" style="fill:#0000ff;stroke:#000000;"/>
   </g>
   <g id="patch_151">
    <path clip-path="url(#p124b8dd147)" d="
M302.181 252
L303.847 252
L303.847 94.8672
L302.181 94.8672
z
" style="fill:#0000ff;stroke:#000000;"/>
   </g>
   <g id="patch_152">
    <path clip-path="url(#p124b8dd147)" d="
M303.847 252
L305.512 252
L305.512 97.4563
L303.847 97.4563
z
" style="fill:#0000ff;stroke:#000000;"/>
   </g>
   <g id="patch_153">
    <path clip-path="url(#p124b8dd147)" d="
M305.512 252
L307.178 252
L307.178 105.045
L305.512 105.045
z
" style="fill:#0000ff;stroke:#000000;"/>
   </g>
   <g id="patch_154">
    <path clip-path="url(#p124b8dd147)" d="
M307.178 252
L308.843 252
L308.843 94.0637
L307.178 94.0637
z
" style="fill:#0000ff;stroke:#000000;"/>
   </g>
   <g id="patch_155">
    <path clip-path="url(#p124b8dd147)" d="
M308.843 252
L310.509 252
L310.509 91.921
L308.843 91.921
z
" style="fill:#0000ff;stroke:#000000;"/>
   </g>
   <g id="patch_156">
    <path clip-path="url(#p124b8dd147)" d="
M310.509 252
L312.175 252
L312.175 97.0099
L310.509 97.0099
z
" style="fill:#0000ff;stroke:#000000;"/>
   </g>
   <g id="patch_157">
    <path clip-path="url(#p124b8dd147)" d="
M312.175 252
L313.84 252
L313.84 87.7248
L312.175 87.7248
z
" style="fill:#0000ff;stroke:#000000;"/>
   </g>
   <g id="patch_158">
    <path clip-path="url(#p124b8dd147)" d="
M313.84 252
L315.506 252
L315.506 103.795
L313.84 103.795
z
" style="fill:#0000ff;stroke:#000000;"/>
   </g>
   <g id="patch_159">
    <path clip-path="url(#p124b8dd147)" d="
M315.506 252
L317.171 252
L317.171 95.76
L315.506 95.76
z
" style="fill:#0000ff;stroke:#000000;"/>
   </g>
   <g id="patch_160">
    <path clip-path="url(#p124b8dd147)" d="
M317.171 252
L318.837 252
L318.837 98.4384
L317.171 98.4384
z
" style="fill:#0000ff;stroke:#000000;"/>
   </g>
   <g id="patch_161">
    <path clip-path="url(#p124b8dd147)" d="
M318.837 252
L320.502 252
L320.502 97.7242
L318.837 97.7242
z
" style="fill:#0000ff;stroke:#000000;"/>
   </g>
   <g id="patch_162">
    <path clip-path="url(#p124b8dd147)" d="
M320.502 252
L322.168 252
L322.168 86.832
L320.502 86.832
z
" style="fill:#0000ff;stroke:#000000;"/>
   </g>
   <g id="patch_163">
    <path clip-path="url(#p124b8dd147)" d="
M322.168 252
L323.834 252
L323.834 94.9565
L322.168 94.9565
z
" style="fill:#0000ff;stroke:#000000;"/>
   </g>
   <g id="patch_164">
    <path clip-path="url(#p124b8dd147)" d="
M323.834 252
L325.499 252
L325.499 91.5638
L323.834 91.5638
z
" style="fill:#0000ff;stroke:#000000;"/>
   </g>
   <g id="patch_165">
    <path clip-path="url(#p124b8dd147)" d="
M325.499 252
L327.165 252
L327.165 91.2067
L325.499 91.2067
z
" style="fill:#0000ff;stroke:#000000;"/>
   </g>
   <g id="patch_166">
    <path clip-path="url(#p124b8dd147)" d="
M327.165 252
L328.83 252
L328.83 84.9571
L327.165 84.9571
z
" style="fill:#0000ff;stroke:#000000;"/>
   </g>
   <g id="patch_167">
    <path clip-path="url(#p124b8dd147)" d="
M328.83 252
L330.496 252
L330.496 87.457
L328.83 87.457
z
" style="fill:#0000ff;stroke:#000000;"/>
   </g>
   <g id="patch_168">
    <path clip-path="url(#p124b8dd147)" d="
M330.496 252
L332.162 252
L332.162 96.4742
L330.496 96.4742
z
" style="fill:#0000ff;stroke:#000000;"/>
   </g>
   <g id="patch_169">
    <path clip-path="url(#p124b8dd147)" d="
M332.162 252
L333.827 252
L333.827 93.7958
L332.162 93.7958
z
" style="fill:#0000ff;stroke:#000000;"/>
   </g>
   <g id="patch_170">
    <path clip-path="url(#p124b8dd147)" d="
M333.827 252
L335.493 252
L335.493 106.563
L333.827 106.563
z
" style="fill:#0000ff;stroke:#000000;"/>
   </g>
   <g id="patch_171">
    <path clip-path="url(#p124b8dd147)" d="
M335.493 252
L337.158 252
L337.158 119.508
L335.493 119.508
z
" style="fill:#0000ff;stroke:#000000;"/>
   </g>
   <g id="patch_172">
    <path clip-path="url(#p124b8dd147)" d="
M337.158 252
L338.824 252
L338.824 132.99
L337.158 132.99
z
" style="fill:#0000ff;stroke:#000000;"/>
   </g>
   <g id="patch_173">
    <path clip-path="url(#p124b8dd147)" d="
M338.824 252
L340.49 252
L340.49 137.275
L338.824 137.275
z
" style="fill:#0000ff;stroke:#000000;"/>
   </g>
   <g id="patch_174">
    <path clip-path="url(#p124b8dd147)" d="
M340.49 252
L342.155 252
L342.155 153.435
L340.49 153.435
z
" style="fill:#0000ff;stroke:#000000;"/>
   </g>
   <g id="patch_175">
    <path clip-path="url(#p124b8dd147)" d="
M342.155 252
L343.821 252
L343.821 158.167
L342.155 158.167
z
" style="fill:#0000ff;stroke:#000000;"/>
   </g>
   <g id="patch_176">
    <path clip-path="url(#p124b8dd147)" d="
M343.821 252
L345.486 252
L345.486 150.132
L343.821 150.132
z
" style="fill:#0000ff;stroke:#000000;"/>
   </g>
   <g id="patch_177">
    <path clip-path="url(#p124b8dd147)" d="
M345.486 252
L347.152 252
L347.152 160.756
L345.486 160.756
z
" style="fill:#0000ff;stroke:#000000;"/>
   </g>
   <g id="patch_178">
    <path clip-path="url(#p124b8dd147)" d="
M347.152 252
L348.817 252
L348.817 163.434
L347.152 163.434
z
" style="fill:#0000ff;stroke:#000000;"/>
   </g>
   <g id="patch_179">
    <path clip-path="url(#p124b8dd147)" d="
M348.817 252
L350.483 252
L350.483 167.988
L348.817 167.988
z
" style="fill:#0000ff;stroke:#000000;"/>
   </g>
   <g id="patch_180">
    <path clip-path="url(#p124b8dd147)" d="
M350.483 252
L352.149 252
L352.149 170.13
L350.483 170.13
z
" style="fill:#0000ff;stroke:#000000;"/>
   </g>
   <g id="patch_181">
    <path clip-path="url(#p124b8dd147)" d="
M352.149 252
L353.814 252
L353.814 169.237
L352.149 169.237
z
" style="fill:#0000ff;stroke:#000000;"/>
   </g>
   <g id="patch_182">
    <path clip-path="url(#p124b8dd147)" d="
M353.814 252
L355.48 252
L355.48 169.505
L353.814 169.505
z
" style="fill:#0000ff;stroke:#000000;"/>
   </g>
   <g id="patch_183">
    <path clip-path="url(#p124b8dd147)" d="
M355.48 252
L357.145 252
L357.145 167.184
L355.48 167.184
z
" style="fill:#0000ff;stroke:#000000;"/>
   </g>
   <g id="patch_184">
    <path clip-path="url(#p124b8dd147)" d="
M357.145 252
L358.811 252
L358.811 174.416
L357.145 174.416
z
" style="fill:#0000ff;stroke:#000000;"/>
   </g>
   <g id="patch_185">
    <path clip-path="url(#p124b8dd147)" d="
M358.811 252
L360.477 252
L360.477 177.808
L358.811 177.808
z
" style="fill:#0000ff;stroke:#000000;"/>
   </g>
   <g id="patch_186">
    <path clip-path="url(#p124b8dd147)" d="
M360.477 252
L362.142 252
L362.142 178.344
L360.477 178.344
z
" style="fill:#0000ff;stroke:#000000;"/>
   </g>
   <g id="patch_187">
    <path clip-path="url(#p124b8dd147)" d="
M362.142 252
L363.808 252
L363.808 178.79
L362.142 178.79
z
" style="fill:#0000ff;stroke:#000000;"/>
   </g>
   <g id="patch_188">
    <path clip-path="url(#p124b8dd147)" d="
M363.808 252
L365.473 252
L365.473 178.255
L363.808 178.255
z
" style="fill:#0000ff;stroke:#000000;"/>
   </g>
   <g id="patch_189">
    <path clip-path="url(#p124b8dd147)" d="
M365.473 252
L367.139 252
L367.139 183.254
L365.473 183.254
z
" style="fill:#0000ff;stroke:#000000;"/>
   </g>
   <g id="patch_190">
    <path clip-path="url(#p124b8dd147)" d="
M367.139 252
L368.805 252
L368.805 173.076
L367.139 173.076
z
" style="fill:#0000ff;stroke:#000000;"/>
   </g>
   <g id="patch_191">
    <path clip-path="url(#p124b8dd147)" d="
M368.805 252
L370.47 252
L370.47 183.969
L368.805 183.969
z
" style="fill:#0000ff;stroke:#000000;"/>
   </g>
   <g id="patch_192">
    <path clip-path="url(#p124b8dd147)" d="
M370.47 252
L372.136 252
L372.136 181.112
L370.47 181.112
z
" style="fill:#0000ff;stroke:#000000;"/>
   </g>
   <g id="patch_193">
    <path clip-path="url(#p124b8dd147)" d="
M372.136 252
L373.801 252
L373.801 198.253
L372.136 198.253
z
" style="fill:#0000ff;stroke:#000000;"/>
   </g>
   <g id="patch_194">
    <path clip-path="url(#p124b8dd147)" d="
M373.801 252
L375.467 252
L375.467 200.128
L373.801 200.128
z
" style="fill:#0000ff;stroke:#000000;"/>
   </g>
   <g id="patch_195">
    <path clip-path="url(#p124b8dd147)" d="
M375.467 252
L377.132 252
L377.132 213.431
L375.467 213.431
z
" style="fill:#0000ff;stroke:#000000;"/>
   </g>
   <g id="patch_196">
    <path clip-path="url(#p124b8dd147)" d="
M377.132 252
L378.798 252
L378.798 223.877
L377.132 223.877
z
" style="fill:#0000ff;stroke:#000000;"/>
   </g>
   <g id="patch_197">
    <path clip-path="url(#p124b8dd147)" d="
M378.798 252
L380.464 252
L380.464 234.769
L378.798 234.769
z
" style="fill:#0000ff;stroke:#000000;"/>
   </g>
   <g id="patch_198">
    <path clip-path="url(#p124b8dd147)" d="
M380.464 252
L382.129 252
L382.129 241.554
L380.464 241.554
z
" style="fill:#0000ff;stroke:#000000;"/>
   </g>
   <g id="patch_199">
    <path clip-path="url(#p124b8dd147)" d="
M382.129 252
L383.795 252
L383.795 245.661
L382.129 245.661
z
" style="fill:#0000ff;stroke:#000000;"/>
   </g>
   <g id="patch_200">
    <path clip-path="url(#p124b8dd147)" d="
M383.795 252
L385.46 252
L385.46 248.607
L383.795 248.607
z
" style="fill:#0000ff;stroke:#000000;"/>
   </g>
   <g id="patch_201">
    <path clip-path="url(#p124b8dd147)" d="
M385.46 252
L387.126 252
L387.126 249.322
L385.46 249.322
z
" style="fill:#0000ff;stroke:#000000;"/>
   </g>
   <g id="matplotlib.axis_1">
    <g id="xtick_1">
     <g id="line2d_1">
      <path clip-path="url(#p124b8dd147)" d="
M54 252
L54 28.8" style="fill:none;stroke:#000000;stroke-dasharray:1.000000,3.000000;stroke-dashoffset:0.0;stroke-width:0.5;"/>
     </g>
     <g id="line2d_2">
      <defs>
       <path d="
M0 0
L0 -4" id="m93b0483c22" style="stroke:#000000;stroke-width:0.5;"/>
      </defs>
      <g>
       <use style="stroke:#000000;stroke-width:0.5;" x="54.0" xlink:href="#m93b0483c22" y="252.0"/>
      </g>
     </g>
     <g id="line2d_3">
      <defs>
       <path d="
M0 0
L0 4" id="m741efc42ff" style="stroke:#000000;stroke-width:0.5;"/>
      </defs>
      <g>
       <use style="stroke:#000000;stroke-width:0.5;" x="54.0" xlink:href="#m741efc42ff" y="28.8"/>
      </g>
     </g>
     <g id="text_1">
      <!-- 1800 -->
      <defs>
       <path d="
M12.4062 8.29688
L28.5156 8.29688
L28.5156 63.9219
L10.9844 60.4062
L10.9844 69.3906
L28.4219 72.9062
L38.2812 72.9062
L38.2812 8.29688
L54.3906 8.29688
L54.3906 0
L12.4062 0
z
" id="DejaVuSans-31"/>
       <path d="
M31.7812 34.625
Q24.75 34.625 20.7188 30.8594
Q16.7031 27.0938 16.7031 20.5156
Q16.7031 13.9219 20.7188 10.1562
Q24.75 6.39062 31.7812 6.39062
Q38.8125 6.39062 42.8594 10.1719
Q46.9219 13.9688 46.9219 20.5156
Q46.9219 27.0938 42.8906 30.8594
Q38.875 34.625 31.7812 34.625
M21.9219 38.8125
Q15.5781 40.375 12.0312 44.7188
Q8.5 49.0781 8.5 55.3281
Q8.5 64.0625 14.7188 69.1406
Q20.9531 74.2188 31.7812 74.2188
Q42.6719 74.2188 48.875 69.1406
Q55.0781 64.0625 55.0781 55.3281
Q55.0781 49.0781 51.5312 44.7188
Q48 40.375 41.7031 38.8125
Q48.8281 37.1562 52.7969 32.3125
Q56.7812 27.4844 56.7812 20.5156
Q56.7812 9.90625 50.3125 4.23438
Q43.8438 -1.42188 31.7812 -1.42188
Q19.7344 -1.42188 13.25 4.23438
Q6.78125 9.90625 6.78125 20.5156
Q6.78125 27.4844 10.7812 32.3125
Q14.7969 37.1562 21.9219 38.8125
M18.3125 54.3906
Q18.3125 48.7344 21.8438 45.5625
Q25.3906 42.3906 31.7812 42.3906
Q38.1406 42.3906 41.7188 45.5625
Q45.3125 48.7344 45.3125 54.3906
Q45.3125 60.0625 41.7188 63.2344
Q38.1406 66.4062 31.7812 66.4062
Q25.3906 66.4062 21.8438 63.2344
Q18.3125 60.0625 18.3125 54.3906" id="DejaVuSans-38"/>
       <path d="
M31.7812 66.4062
Q24.1719 66.4062 20.3281 58.9062
Q16.5 51.4219 16.5 36.375
Q16.5 21.3906 20.3281 13.8906
Q24.1719 6.39062 31.7812 6.39062
Q39.4531 6.39062 43.2812 13.8906
Q47.125 21.3906 47.125 36.375
Q47.125 51.4219 43.2812 58.9062
Q39.4531 66.4062 31.7812 66.4062
M31.7812 74.2188
Q44.0469 74.2188 50.5156 64.5156
Q56.9844 54.8281 56.9844 36.375
Q56.9844 17.9688 50.5156 8.26562
Q44.0469 -1.42188 31.7812 -1.42188
Q19.5312 -1.42188 13.0625 8.26562
Q6.59375 17.9688 6.59375 36.375
Q6.59375 54.8281 13.0625 64.5156
Q19.5312 74.2188 31.7812 74.2188" id="DejaVuSans-30"/>
      </defs>
      <g transform="translate(56.759375 279.6875)rotate(-90.0)scale(0.1 -0.1)">
       <use xlink:href="#DejaVuSans-31"/>
       <use x="63.623046875" xlink:href="#DejaVuSans-38"/>
       <use x="127.24609375" xlink:href="#DejaVuSans-30"/>
       <use x="190.869140625" xlink:href="#DejaVuSans-30"/>
      </g>
     </g>
    </g>
    <g id="xtick_2">
     <g id="line2d_4">
      <path clip-path="url(#p124b8dd147)" d="
M70.74 252
L70.74 28.8" style="fill:none;stroke:#000000;stroke-dasharray:1.000000,3.000000;stroke-dashoffset:0.0;stroke-width:0.5;"/>
     </g>
     <g id="line2d_5">
      <g>
       <use style="stroke:#000000;stroke-width:0.5;" x="70.74" xlink:href="#m93b0483c22" y="252.0"/>
      </g>
     </g>
     <g id="line2d_6">
      <g>
       <use style="stroke:#000000;stroke-width:0.5;" x="70.74" xlink:href="#m741efc42ff" y="28.8"/>
      </g>
     </g>
     <g id="text_2">
      <!-- 1810 -->
      <g transform="translate(73.499375 279.6875)rotate(-90.0)scale(0.1 -0.1)">
       <use xlink:href="#DejaVuSans-31"/>
       <use x="63.623046875" xlink:href="#DejaVuSans-38"/>
       <use x="127.24609375" xlink:href="#DejaVuSans-31"/>
       <use x="190.869140625" xlink:href="#DejaVuSans-30"/>
      </g>
     </g>
    </g>
    <g id="xtick_3">
     <g id="line2d_7">
      <path clip-path="url(#p124b8dd147)" d="
M87.48 252
L87.48 28.8" style="fill:none;stroke:#000000;stroke-dasharray:1.000000,3.000000;stroke-dashoffset:0.0;stroke-width:0.5;"/>
     </g>
     <g id="line2d_8">
      <g>
       <use style="stroke:#000000;stroke-width:0.5;" x="87.48" xlink:href="#m93b0483c22" y="252.0"/>
      </g>
     </g>
     <g id="line2d_9">
      <g>
       <use style="stroke:#000000;stroke-width:0.5;" x="87.48" xlink:href="#m741efc42ff" y="28.8"/>
      </g>
     </g>
     <g id="text_3">
      <!-- 1820 -->
      <defs>
       <path d="
M19.1875 8.29688
L53.6094 8.29688
L53.6094 0
L7.32812 0
L7.32812 8.29688
Q12.9375 14.1094 22.625 23.8906
Q32.3281 33.6875 34.8125 36.5312
Q39.5469 41.8438 41.4219 45.5312
Q43.3125 49.2188 43.3125 52.7812
Q43.3125 58.5938 39.2344 62.25
Q35.1562 65.9219 28.6094 65.9219
Q23.9688 65.9219 18.8125 64.3125
Q13.6719 62.7031 7.8125 59.4219
L7.8125 69.3906
Q13.7656 71.7812 18.9375 73
Q24.125 74.2188 28.4219 74.2188
Q39.75 74.2188 46.4844 68.5469
Q53.2188 62.8906 53.2188 53.4219
Q53.2188 48.9219 51.5312 44.8906
Q49.8594 40.875 45.4062 35.4062
Q44.1875 33.9844 37.6406 27.2188
Q31.1094 20.4531 19.1875 8.29688" id="DejaVuSans-32"/>
      </defs>
      <g transform="translate(90.239375 279.6875)rotate(-90.0)scale(0.1 -0.1)">
       <use xlink:href="#DejaVuSans-31"/>
       <use x="63.623046875" xlink:href="#DejaVuSans-38"/>
       <use x="127.24609375" xlink:href="#DejaVuSans-32"/>
       <use x="190.869140625" xlink:href="#DejaVuSans-30"/>
      </g>
     </g>
    </g>
    <g id="xtick_4">
     <g id="line2d_10">
      <path clip-path="url(#p124b8dd147)" d="
M104.22 252
L104.22 28.8" style="fill:none;stroke:#000000;stroke-dasharray:1.000000,3.000000;stroke-dashoffset:0.0;stroke-width:0.5;"/>
     </g>
     <g id="line2d_11">
      <g>
       <use style="stroke:#000000;stroke-width:0.5;" x="104.22" xlink:href="#m93b0483c22" y="252.0"/>
      </g>
     </g>
     <g id="line2d_12">
      <g>
       <use style="stroke:#000000;stroke-width:0.5;" x="104.22" xlink:href="#m741efc42ff" y="28.8"/>
      </g>
     </g>
     <g id="text_4">
      <!-- 1830 -->
      <defs>
       <path d="
M40.5781 39.3125
Q47.6562 37.7969 51.625 33
Q55.6094 28.2188 55.6094 21.1875
Q55.6094 10.4062 48.1875 4.48438
Q40.7656 -1.42188 27.0938 -1.42188
Q22.5156 -1.42188 17.6562 -0.515625
Q12.7969 0.390625 7.625 2.20312
L7.625 11.7188
Q11.7188 9.32812 16.5938 8.10938
Q21.4844 6.89062 26.8125 6.89062
Q36.0781 6.89062 40.9375 10.5469
Q45.7969 14.2031 45.7969 21.1875
Q45.7969 27.6406 41.2812 31.2656
Q36.7656 34.9062 28.7188 34.9062
L20.2188 34.9062
L20.2188 43.0156
L29.1094 43.0156
Q36.375 43.0156 40.2344 45.9219
Q44.0938 48.8281 44.0938 54.2969
Q44.0938 59.9062 40.1094 62.9062
Q36.1406 65.9219 28.7188 65.9219
Q24.6562 65.9219 20.0156 65.0312
Q15.375 64.1562 9.8125 62.3125
L9.8125 71.0938
Q15.4375 72.6562 20.3438 73.4375
Q25.25 74.2188 29.5938 74.2188
Q40.8281 74.2188 47.3594 69.1094
Q53.9062 64.0156 53.9062 55.3281
Q53.9062 49.2656 50.4375 45.0938
Q46.9688 40.9219 40.5781 39.3125" id="DejaVuSans-33"/>
      </defs>
      <g transform="translate(106.979375 279.6875)rotate(-90.0)scale(0.1 -0.1)">
       <use xlink:href="#DejaVuSans-31"/>
       <use x="63.623046875" xlink:href="#DejaVuSans-38"/>
       <use x="127.24609375" xlink:href="#DejaVuSans-33"/>
       <use x="190.869140625" xlink:href="#DejaVuSans-30"/>
      </g>
     </g>
    </g>
    <g id="xtick_5">
     <g id="line2d_13">
      <path clip-path="url(#p124b8dd147)" d="
M120.96 252
L120.96 28.8" style="fill:none;stroke:#000000;stroke-dasharray:1.000000,3.000000;stroke-dashoffset:0.0;stroke-width:0.5;"/>
     </g>
     <g id="line2d_14">
      <g>
       <use style="stroke:#000000;stroke-width:0.5;" x="120.96" xlink:href="#m93b0483c22" y="252.0"/>
      </g>
     </g>
     <g id="line2d_15">
      <g>
       <use style="stroke:#000000;stroke-width:0.5;" x="120.96" xlink:href="#m741efc42ff" y="28.8"/>
      </g>
     </g>
     <g id="text_5">
      <!-- 1840 -->
      <defs>
       <path d="
M37.7969 64.3125
L12.8906 25.3906
L37.7969 25.3906
z

M35.2031 72.9062
L47.6094 72.9062
L47.6094 25.3906
L58.0156 25.3906
L58.0156 17.1875
L47.6094 17.1875
L47.6094 0
L37.7969 0
L37.7969 17.1875
L4.89062 17.1875
L4.89062 26.7031
z
" id="DejaVuSans-34"/>
      </defs>
      <g transform="translate(123.719375 279.6875)rotate(-90.0)scale(0.1 -0.1)">
       <use xlink:href="#DejaVuSans-31"/>
       <use x="63.623046875" xlink:href="#DejaVuSans-38"/>
       <use x="127.24609375" xlink:href="#DejaVuSans-34"/>
       <use x="190.869140625" xlink:href="#DejaVuSans-30"/>
      </g>
     </g>
    </g>
    <g id="xtick_6">
     <g id="line2d_16">
      <path clip-path="url(#p124b8dd147)" d="
M137.7 252
L137.7 28.8" style="fill:none;stroke:#000000;stroke-dasharray:1.000000,3.000000;stroke-dashoffset:0.0;stroke-width:0.5;"/>
     </g>
     <g id="line2d_17">
      <g>
       <use style="stroke:#000000;stroke-width:0.5;" x="137.7" xlink:href="#m93b0483c22" y="252.0"/>
      </g>
     </g>
     <g id="line2d_18">
      <g>
       <use style="stroke:#000000;stroke-width:0.5;" x="137.7" xlink:href="#m741efc42ff" y="28.8"/>
      </g>
     </g>
     <g id="text_6">
      <!-- 1850 -->
      <defs>
       <path d="
M10.7969 72.9062
L49.5156 72.9062
L49.5156 64.5938
L19.8281 64.5938
L19.8281 46.7344
Q21.9688 47.4688 24.1094 47.8281
Q26.2656 48.1875 28.4219 48.1875
Q40.625 48.1875 47.75 41.5
Q54.8906 34.8125 54.8906 23.3906
Q54.8906 11.625 47.5625 5.09375
Q40.2344 -1.42188 26.9062 -1.42188
Q22.3125 -1.42188 17.5469 -0.640625
Q12.7969 0.140625 7.71875 1.70312
L7.71875 11.625
Q12.1094 9.23438 16.7969 8.0625
Q21.4844 6.89062 26.7031 6.89062
Q35.1562 6.89062 40.0781 11.3281
Q45.0156 15.7656 45.0156 23.3906
Q45.0156 31 40.0781 35.4375
Q35.1562 39.8906 26.7031 39.8906
Q22.75 39.8906 18.8125 39.0156
Q14.8906 38.1406 10.7969 36.2812
z
" id="DejaVuSans-35"/>
      </defs>
      <g transform="translate(140.459375 279.6875)rotate(-90.0)scale(0.1 -0.1)">
       <use xlink:href="#DejaVuSans-31"/>
       <use x="63.623046875" xlink:href="#DejaVuSans-38"/>
       <use x="127.24609375" xlink:href="#DejaVuSans-35"/>
       <use x="190.869140625" xlink:href="#DejaVuSans-30"/>
      </g>
     </g>
    </g>
    <g id="xtick_7">
     <g id="line2d_19">
      <path clip-path="url(#p124b8dd147)" d="
M154.44 252
L154.44 28.8" style="fill:none;stroke:#000000;stroke-dasharray:1.000000,3.000000;stroke-dashoffset:0.0;stroke-width:0.5;"/>
     </g>
     <g id="line2d_20">
      <g>
       <use style="stroke:#000000;stroke-width:0.5;" x="154.44" xlink:href="#m93b0483c22" y="252.0"/>
      </g>
     </g>
     <g id="line2d_21">
      <g>
       <use style="stroke:#000000;stroke-width:0.5;" x="154.44" xlink:href="#m741efc42ff" y="28.8"/>
      </g>
     </g>
     <g id="text_7">
      <!-- 1860 -->
      <defs>
       <path d="
M33.0156 40.375
Q26.375 40.375 22.4844 35.8281
Q18.6094 31.2969 18.6094 23.3906
Q18.6094 15.5312 22.4844 10.9531
Q26.375 6.39062 33.0156 6.39062
Q39.6562 6.39062 43.5312 10.9531
Q47.4062 15.5312 47.4062 23.3906
Q47.4062 31.2969 43.5312 35.8281
Q39.6562 40.375 33.0156 40.375
M52.5938 71.2969
L52.5938 62.3125
Q48.875 64.0625 45.0938 64.9844
Q41.3125 65.9219 37.5938 65.9219
Q27.8281 65.9219 22.6719 59.3281
Q17.5312 52.7344 16.7969 39.4062
Q19.6719 43.6562 24.0156 45.9219
Q28.375 48.1875 33.5938 48.1875
Q44.5781 48.1875 50.9531 41.5156
Q57.3281 34.8594 57.3281 23.3906
Q57.3281 12.1562 50.6875 5.35938
Q44.0469 -1.42188 33.0156 -1.42188
Q20.3594 -1.42188 13.6719 8.26562
Q6.98438 17.9688 6.98438 36.375
Q6.98438 53.6562 15.1875 63.9375
Q23.3906 74.2188 37.2031 74.2188
Q40.9219 74.2188 44.7031 73.4844
Q48.4844 72.75 52.5938 71.2969" id="DejaVuSans-36"/>
      </defs>
      <g transform="translate(157.199375 279.6875)rotate(-90.0)scale(0.1 -0.1)">
       <use xlink:href="#DejaVuSans-31"/>
       <use x="63.623046875" xlink:href="#DejaVuSans-38"/>
       <use x="127.24609375" xlink:href="#DejaVuSans-36"/>
       <use x="190.869140625" xlink:href="#DejaVuSans-30"/>
      </g>
     </g>
    </g>
    <g id="xtick_8">
     <g id="line2d_22">
      <path clip-path="url(#p124b8dd147)" d="
M171.18 252
L171.18 28.8" style="fill:none;stroke:#000000;stroke-dasharray:1.000000,3.000000;stroke-dashoffset:0.0;stroke-width:0.5;"/>
     </g>
     <g id="line2d_23">
      <g>
       <use style="stroke:#000000;stroke-width:0.5;" x="171.18" xlink:href="#m93b0483c22" y="252.0"/>
      </g>
     </g>
     <g id="line2d_24">
      <g>
       <use style="stroke:#000000;stroke-width:0.5;" x="171.18" xlink:href="#m741efc42ff" y="28.8"/>
      </g>
     </g>
     <g id="text_8">
      <!-- 1870 -->
      <defs>
       <path d="
M8.20312 72.9062
L55.0781 72.9062
L55.0781 68.7031
L28.6094 0
L18.3125 0
L43.2188 64.5938
L8.20312 64.5938
z
" id="DejaVuSans-37"/>
      </defs>
      <g transform="translate(173.939375 279.6875)rotate(-90.0)scale(0.1 -0.1)">
       <use xlink:href="#DejaVuSans-31"/>
       <use x="63.623046875" xlink:href="#DejaVuSans-38"/>
       <use x="127.24609375" xlink:href="#DejaVuSans-37"/>
       <use x="190.869140625" xlink:href="#DejaVuSans-30"/>
      </g>
     </g>
    </g>
    <g id="xtick_9">
     <g id="line2d_25">
      <path clip-path="url(#p124b8dd147)" d="
M187.92 252
L187.92 28.8" style="fill:none;stroke:#000000;stroke-dasharray:1.000000,3.000000;stroke-dashoffset:0.0;stroke-width:0.5;"/>
     </g>
     <g id="line2d_26">
      <g>
       <use style="stroke:#000000;stroke-width:0.5;" x="187.92" xlink:href="#m93b0483c22" y="252.0"/>
      </g>
     </g>
     <g id="line2d_27">
      <g>
       <use style="stroke:#000000;stroke-width:0.5;" x="187.92" xlink:href="#m741efc42ff" y="28.8"/>
      </g>
     </g>
     <g id="text_9">
      <!-- 1880 -->
      <g transform="translate(190.679375 279.6875)rotate(-90.0)scale(0.1 -0.1)">
       <use xlink:href="#DejaVuSans-31"/>
       <use x="63.623046875" xlink:href="#DejaVuSans-38"/>
       <use x="127.24609375" xlink:href="#DejaVuSans-38"/>
       <use x="190.869140625" xlink:href="#DejaVuSans-30"/>
      </g>
     </g>
    </g>
    <g id="xtick_10">
     <g id="line2d_28">
      <path clip-path="url(#p124b8dd147)" d="
M204.66 252
L204.66 28.8" style="fill:none;stroke:#000000;stroke-dasharray:1.000000,3.000000;stroke-dashoffset:0.0;stroke-width:0.5;"/>
     </g>
     <g id="line2d_29">
      <g>
       <use style="stroke:#000000;stroke-width:0.5;" x="204.66" xlink:href="#m93b0483c22" y="252.0"/>
      </g>
     </g>
     <g id="line2d_30">
      <g>
       <use style="stroke:#000000;stroke-width:0.5;" x="204.66" xlink:href="#m741efc42ff" y="28.8"/>
      </g>
     </g>
     <g id="text_10">
      <!-- 1890 -->
      <defs>
       <path d="
M10.9844 1.51562
L10.9844 10.5
Q14.7031 8.73438 18.5 7.8125
Q22.3125 6.89062 25.9844 6.89062
Q35.75 6.89062 40.8906 13.4531
Q46.0469 20.0156 46.7812 33.4062
Q43.9531 29.2031 39.5938 26.9531
Q35.25 24.7031 29.9844 24.7031
Q19.0469 24.7031 12.6719 31.3125
Q6.29688 37.9375 6.29688 49.4219
Q6.29688 60.6406 12.9375 67.4219
Q19.5781 74.2188 30.6094 74.2188
Q43.2656 74.2188 49.9219 64.5156
Q56.5938 54.8281 56.5938 36.375
Q56.5938 19.1406 48.4062 8.85938
Q40.2344 -1.42188 26.4219 -1.42188
Q22.7031 -1.42188 18.8906 -0.6875
Q15.0938 0.046875 10.9844 1.51562
M30.6094 32.4219
Q37.25 32.4219 41.125 36.9531
Q45.0156 41.5 45.0156 49.4219
Q45.0156 57.2812 41.125 61.8438
Q37.25 66.4062 30.6094 66.4062
Q23.9688 66.4062 20.0938 61.8438
Q16.2188 57.2812 16.2188 49.4219
Q16.2188 41.5 20.0938 36.9531
Q23.9688 32.4219 30.6094 32.4219" id="DejaVuSans-39"/>
      </defs>
      <g transform="translate(207.419375 279.6875)rotate(-90.0)scale(0.1 -0.1)">
       <use xlink:href="#DejaVuSans-31"/>
       <use x="63.623046875" xlink:href="#DejaVuSans-38"/>
       <use x="127.24609375" xlink:href="#DejaVuSans-39"/>
       <use x="190.869140625" xlink:href="#DejaVuSans-30"/>
      </g>
     </g>
    </g>
    <g id="xtick_11">
     <g id="line2d_31">
      <path clip-path="url(#p124b8dd147)" d="
M221.4 252
L221.4 28.8" style="fill:none;stroke:#000000;stroke-dasharray:1.000000,3.000000;stroke-dashoffset:0.0;stroke-width:0.5;"/>
     </g>
     <g id="line2d_32">
      <g>
       <use style="stroke:#000000;stroke-width:0.5;" x="221.4" xlink:href="#m93b0483c22" y="252.0"/>
      </g>
     </g>
     <g id="line2d_33">
      <g>
       <use style="stroke:#000000;stroke-width:0.5;" x="221.4" xlink:href="#m741efc42ff" y="28.8"/>
      </g>
     </g>
     <g id="text_11">
      <!-- 1900 -->
      <g transform="translate(224.159375 279.6875)rotate(-90.0)scale(0.1 -0.1)">
       <use xlink:href="#DejaVuSans-31"/>
       <use x="63.623046875" xlink:href="#DejaVuSans-39"/>
       <use x="127.24609375" xlink:href="#DejaVuSans-30"/>
       <use x="190.869140625" xlink:href="#DejaVuSans-30"/>
      </g>
     </g>
    </g>
    <g id="xtick_12">
     <g id="line2d_34">
      <path clip-path="url(#p124b8dd147)" d="
M238.14 252
L238.14 28.8" style="fill:none;stroke:#000000;stroke-dasharray:1.000000,3.000000;stroke-dashoffset:0.0;stroke-width:0.5;"/>
     </g>
     <g id="line2d_35">
      <g>
       <use style="stroke:#000000;stroke-width:0.5;" x="238.14" xlink:href="#m93b0483c22" y="252.0"/>
      </g>
     </g>
     <g id="line2d_36">
      <g>
       <use style="stroke:#000000;stroke-width:0.5;" x="238.14" xlink:href="#m741efc42ff" y="28.8"/>
      </g>
     </g>
     <g id="text_12">
      <!-- 1910 -->
      <g transform="translate(240.899375 279.6875)rotate(-90.0)scale(0.1 -0.1)">
       <use xlink:href="#DejaVuSans-31"/>
       <use x="63.623046875" xlink:href="#DejaVuSans-39"/>
       <use x="127.24609375" xlink:href="#DejaVuSans-31"/>
       <use x="190.869140625" xlink:href="#DejaVuSans-30"/>
      </g>
     </g>
    </g>
    <g id="xtick_13">
     <g id="line2d_37">
      <path clip-path="url(#p124b8dd147)" d="
M254.88 252
L254.88 28.8" style="fill:none;stroke:#000000;stroke-dasharray:1.000000,3.000000;stroke-dashoffset:0.0;stroke-width:0.5;"/>
     </g>
     <g id="line2d_38">
      <g>
       <use style="stroke:#000000;stroke-width:0.5;" x="254.88" xlink:href="#m93b0483c22" y="252.0"/>
      </g>
     </g>
     <g id="line2d_39">
      <g>
       <use style="stroke:#000000;stroke-width:0.5;" x="254.88" xlink:href="#m741efc42ff" y="28.8"/>
      </g>
     </g>
     <g id="text_13">
      <!-- 1920 -->
      <g transform="translate(257.639375 279.6875)rotate(-90.0)scale(0.1 -0.1)">
       <use xlink:href="#DejaVuSans-31"/>
       <use x="63.623046875" xlink:href="#DejaVuSans-39"/>
       <use x="127.24609375" xlink:href="#DejaVuSans-32"/>
       <use x="190.869140625" xlink:href="#DejaVuSans-30"/>
      </g>
     </g>
    </g>
    <g id="xtick_14">
     <g id="line2d_40">
      <path clip-path="url(#p124b8dd147)" d="
M271.62 252
L271.62 28.8" style="fill:none;stroke:#000000;stroke-dasharray:1.000000,3.000000;stroke-dashoffset:0.0;stroke-width:0.5;"/>
     </g>
     <g id="line2d_41">
      <g>
       <use style="stroke:#000000;stroke-width:0.5;" x="271.62" xlink:href="#m93b0483c22" y="252.0"/>
      </g>
     </g>
     <g id="line2d_42">
      <g>
       <use style="stroke:#000000;stroke-width:0.5;" x="271.62" xlink:href="#m741efc42ff" y="28.8"/>
      </g>
     </g>
     <g id="text_14">
      <!-- 1930 -->
      <g transform="translate(274.379375 279.6875)rotate(-90.0)scale(0.1 -0.1)">
       <use xlink:href="#DejaVuSans-31"/>
       <use x="63.623046875" xlink:href="#DejaVuSans-39"/>
       <use x="127.24609375" xlink:href="#DejaVuSans-33"/>
       <use x="190.869140625" xlink:href="#DejaVuSans-30"/>
      </g>
     </g>
    </g>
    <g id="xtick_15">
     <g id="line2d_43">
      <path clip-path="url(#p124b8dd147)" d="
M288.36 252
L288.36 28.8" style="fill:none;stroke:#000000;stroke-dasharray:1.000000,3.000000;stroke-dashoffset:0.0;stroke-width:0.5;"/>
     </g>
     <g id="line2d_44">
      <g>
       <use style="stroke:#000000;stroke-width:0.5;" x="288.36" xlink:href="#m93b0483c22" y="252.0"/>
      </g>
     </g>
     <g id="line2d_45">
      <g>
       <use style="stroke:#000000;stroke-width:0.5;" x="288.36" xlink:href="#m741efc42ff" y="28.8"/>
      </g>
     </g>
     <g id="text_15">
      <!-- 1940 -->
      <g transform="translate(291.119375 279.6875)rotate(-90.0)scale(0.1 -0.1)">
       <use xlink:href="#DejaVuSans-31"/>
       <use x="63.623046875" xlink:href="#DejaVuSans-39"/>
       <use x="127.24609375" xlink:href="#DejaVuSans-34"/>
       <use x="190.869140625" xlink:href="#DejaVuSans-30"/>
      </g>
     </g>
    </g>
    <g id="xtick_16">
     <g id="line2d_46">
      <path clip-path="url(#p124b8dd147)" d="
M305.1 252
L305.1 28.8" style="fill:none;stroke:#000000;stroke-dasharray:1.000000,3.000000;stroke-dashoffset:0.0;stroke-width:0.5;"/>
     </g>
     <g id="line2d_47">
      <g>
       <use style="stroke:#000000;stroke-width:0.5;" x="305.1" xlink:href="#m93b0483c22" y="252.0"/>
      </g>
     </g>
     <g id="line2d_48">
      <g>
       <use style="stroke:#000000;stroke-width:0.5;" x="305.1" xlink:href="#m741efc42ff" y="28.8"/>
      </g>
     </g>
     <g id="text_16">
      <!-- 1950 -->
      <g transform="translate(307.859375 279.6875)rotate(-90.0)scale(0.1 -0.1)">
       <use xlink:href="#DejaVuSans-31"/>
       <use x="63.623046875" xlink:href="#DejaVuSans-39"/>
       <use x="127.24609375" xlink:href="#DejaVuSans-35"/>
       <use x="190.869140625" xlink:href="#DejaVuSans-30"/>
      </g>
     </g>
    </g>
    <g id="xtick_17">
     <g id="line2d_49">
      <path clip-path="url(#p124b8dd147)" d="
M321.84 252
L321.84 28.8" style="fill:none;stroke:#000000;stroke-dasharray:1.000000,3.000000;stroke-dashoffset:0.0;stroke-width:0.5;"/>
     </g>
     <g id="line2d_50">
      <g>
       <use style="stroke:#000000;stroke-width:0.5;" x="321.84" xlink:href="#m93b0483c22" y="252.0"/>
      </g>
     </g>
     <g id="line2d_51">
      <g>
       <use style="stroke:#000000;stroke-width:0.5;" x="321.84" xlink:href="#m741efc42ff" y="28.8"/>
      </g>
     </g>
     <g id="text_17">
      <!-- 1960 -->
      <g transform="translate(324.599375 279.6875)rotate(-90.0)scale(0.1 -0.1)">
       <use xlink:href="#DejaVuSans-31"/>
       <use x="63.623046875" xlink:href="#DejaVuSans-39"/>
       <use x="127.24609375" xlink:href="#DejaVuSans-36"/>
       <use x="190.869140625" xlink:href="#DejaVuSans-30"/>
      </g>
     </g>
    </g>
    <g id="xtick_18">
     <g id="line2d_52">
      <path clip-path="url(#p124b8dd147)" d="
M338.58 252
L338.58 28.8" style="fill:none;stroke:#000000;stroke-dasharray:1.000000,3.000000;stroke-dashoffset:0.0;stroke-width:0.5;"/>
     </g>
     <g id="line2d_53">
      <g>
       <use style="stroke:#000000;stroke-width:0.5;" x="338.58" xlink:href="#m93b0483c22" y="252.0"/>
      </g>
     </g>
     <g id="line2d_54">
      <g>
       <use style="stroke:#000000;stroke-width:0.5;" x="338.58" xlink:href="#m741efc42ff" y="28.8"/>
      </g>
     </g>
     <g id="text_18">
      <!-- 1970 -->
      <g transform="translate(341.339375 279.6875)rotate(-90.0)scale(0.1 -0.1)">
       <use xlink:href="#DejaVuSans-31"/>
       <use x="63.623046875" xlink:href="#DejaVuSans-39"/>
       <use x="127.24609375" xlink:href="#DejaVuSans-37"/>
       <use x="190.869140625" xlink:href="#DejaVuSans-30"/>
      </g>
     </g>
    </g>
    <g id="xtick_19">
     <g id="line2d_55">
      <path clip-path="url(#p124b8dd147)" d="
M355.32 252
L355.32 28.8" style="fill:none;stroke:#000000;stroke-dasharray:1.000000,3.000000;stroke-dashoffset:0.0;stroke-width:0.5;"/>
     </g>
     <g id="line2d_56">
      <g>
       <use style="stroke:#000000;stroke-width:0.5;" x="355.32" xlink:href="#m93b0483c22" y="252.0"/>
      </g>
     </g>
     <g id="line2d_57">
      <g>
       <use style="stroke:#000000;stroke-width:0.5;" x="355.32" xlink:href="#m741efc42ff" y="28.8"/>
      </g>
     </g>
     <g id="text_19">
      <!-- 1980 -->
      <g transform="translate(358.079375 279.6875)rotate(-90.0)scale(0.1 -0.1)">
       <use xlink:href="#DejaVuSans-31"/>
       <use x="63.623046875" xlink:href="#DejaVuSans-39"/>
       <use x="127.24609375" xlink:href="#DejaVuSans-38"/>
       <use x="190.869140625" xlink:href="#DejaVuSans-30"/>
      </g>
     </g>
    </g>
    <g id="xtick_20">
     <g id="line2d_58">
      <path clip-path="url(#p124b8dd147)" d="
M372.06 252
L372.06 28.8" style="fill:none;stroke:#000000;stroke-dasharray:1.000000,3.000000;stroke-dashoffset:0.0;stroke-width:0.5;"/>
     </g>
     <g id="line2d_59">
      <g>
       <use style="stroke:#000000;stroke-width:0.5;" x="372.06" xlink:href="#m93b0483c22" y="252.0"/>
      </g>
     </g>
     <g id="line2d_60">
      <g>
       <use style="stroke:#000000;stroke-width:0.5;" x="372.06" xlink:href="#m741efc42ff" y="28.8"/>
      </g>
     </g>
     <g id="text_20">
      <!-- 1990 -->
      <g transform="translate(374.819375 279.6875)rotate(-90.0)scale(0.1 -0.1)">
       <use xlink:href="#DejaVuSans-31"/>
       <use x="63.623046875" xlink:href="#DejaVuSans-39"/>
       <use x="127.24609375" xlink:href="#DejaVuSans-39"/>
       <use x="190.869140625" xlink:href="#DejaVuSans-30"/>
      </g>
     </g>
    </g>
   </g>
   <g id="matplotlib.axis_2">
    <g id="ytick_1">
     <g id="line2d_61">
      <path clip-path="url(#p124b8dd147)" d="
M54 252
L388.8 252" style="fill:none;stroke:#000000;stroke-dasharray:1.000000,3.000000;stroke-dashoffset:0.0;stroke-width:0.5;"/>
     </g>
     <g id="line2d_62">
      <defs>
       <path d="
M0 0
L4 0" id="m728421d6d4" style="stroke:#000000;stroke-width:0.5;"/>
      </defs>
      <g>
       <use style="stroke:#000000;stroke-width:0.5;" x="54.0" xlink:href="#m728421d6d4" y="252.0"/>
      </g>
     </g>
     <g id="line2d_63">
      <defs>
       <path d="
M0 0
L-4 0" id="mcb0005524f" style="stroke:#000000;stroke-width:0.5;"/>
      </defs>
      <g>
       <use style="stroke:#000000;stroke-width:0.5;" x="388.8" xlink:href="#mcb0005524f" y="252.0"/>
      </g>
     </g>
     <g id="text_21">
      <!-- 0 -->
      <g transform="translate(44.9609375 254.759375)scale(0.1 -0.1)">
       <use xlink:href="#DejaVuSans-30"/>
      </g>
     </g>
    </g>
    <g id="ytick_2">
     <g id="line2d_64">
      <path clip-path="url(#p124b8dd147)" d="
M54 207.36
L388.8 207.36" style="fill:none;stroke:#000000;stroke-dasharray:1.000000,3.000000;stroke-dashoffset:0.0;stroke-width:0.5;"/>
     </g>
     <g id="line2d_65">
      <g>
       <use style="stroke:#000000;stroke-width:0.5;" x="54.0" xlink:href="#m728421d6d4" y="207.36"/>
      </g>
     </g>
     <g id="line2d_66">
      <g>
       <use style="stroke:#000000;stroke-width:0.5;" x="388.8" xlink:href="#mcb0005524f" y="207.36"/>
      </g>
     </g>
     <g id="text_22">
      <!-- 500 -->
      <g transform="translate(32.3484375 210.119375)scale(0.1 -0.1)">
       <use xlink:href="#DejaVuSans-35"/>
       <use x="63.623046875" xlink:href="#DejaVuSans-30"/>
       <use x="127.24609375" xlink:href="#DejaVuSans-30"/>
      </g>
     </g>
    </g>
    <g id="ytick_3">
     <g id="line2d_67">
      <path clip-path="url(#p124b8dd147)" d="
M54 162.72
L388.8 162.72" style="fill:none;stroke:#000000;stroke-dasharray:1.000000,3.000000;stroke-dashoffset:0.0;stroke-width:0.5;"/>
     </g>
     <g id="line2d_68">
      <g>
       <use style="stroke:#000000;stroke-width:0.5;" x="54.0" xlink:href="#m728421d6d4" y="162.72"/>
      </g>
     </g>
     <g id="line2d_69">
      <g>
       <use style="stroke:#000000;stroke-width:0.5;" x="388.8" xlink:href="#mcb0005524f" y="162.72"/>
      </g>
     </g>
     <g id="text_23">
      <!-- 1000 -->
      <g transform="translate(26.3125 165.479375)scale(0.1 -0.1)">
       <use xlink:href="#DejaVuSans-31"/>
       <use x="63.623046875" xlink:href="#DejaVuSans-30"/>
       <use x="127.24609375" xlink:href="#DejaVuSans-30"/>
       <use x="190.869140625" xlink:href="#DejaVuSans-30"/>
      </g>
     </g>
    </g>
    <g id="ytick_4">
     <g id="line2d_70">
      <path clip-path="url(#p124b8dd147)" d="
M54 118.08
L388.8 118.08" style="fill:none;stroke:#000000;stroke-dasharray:1.000000,3.000000;stroke-dashoffset:0.0;stroke-width:0.5;"/>
     </g>
     <g id="line2d_71">
      <g>
       <use style="stroke:#000000;stroke-width:0.5;" x="54.0" xlink:href="#m728421d6d4" y="118.08"/>
      </g>
     </g>
     <g id="line2d_72">
      <g>
       <use style="stroke:#000000;stroke-width:0.5;" x="388.8" xlink:href="#mcb0005524f" y="118.08"/>
      </g>
     </g>
     <g id="text_24">
      <!-- 1500 -->
      <g transform="translate(26.3125 120.839375)scale(0.1 -0.1)">
       <use xlink:href="#DejaVuSans-31"/>
       <use x="63.623046875" xlink:href="#DejaVuSans-35"/>
       <use x="127.24609375" xlink:href="#DejaVuSans-30"/>
       <use x="190.869140625" xlink:href="#DejaVuSans-30"/>
      </g>
     </g>
    </g>
    <g id="ytick_5">
     <g id="line2d_73">
      <path clip-path="url(#p124b8dd147)" d="
M54 73.44
L388.8 73.44" style="fill:none;stroke:#000000;stroke-dasharray:1.000000,3.000000;stroke-dashoffset:0.0;stroke-width:0.5;"/>
     </g>
     <g id="line2d_74">
      <g>
       <use style="stroke:#000000;stroke-width:0.5;" x="54.0" xlink:href="#m728421d6d4" y="73.44"/>
      </g>
     </g>
     <g id="line2d_75">
      <g>
       <use style="stroke:#000000;stroke-width:0.5;" x="388.8" xlink:href="#mcb0005524f" y="73.44"/>
      </g>
     </g>
     <g id="text_25">
      <!-- 2000 -->
      <g transform="translate(25.946875 76.199375)scale(0.1 -0.1)">
       <use xlink:href="#DejaVuSans-32"/>
       <use x="63.623046875" xlink:href="#DejaVuSans-30"/>
       <use x="127.24609375" xlink:href="#DejaVuSans-30"/>
       <use x="190.869140625" xlink:href="#DejaVuSans-30"/>
      </g>
     </g>
    </g>
    <g id="ytick_6">
     <g id="line2d_76">
      <path clip-path="url(#p124b8dd147)" d="
M54 28.8
L388.8 28.8" style="fill:none;stroke:#000000;stroke-dasharray:1.000000,3.000000;stroke-dashoffset:0.0;stroke-width:0.5;"/>
     </g>
     <g id="line2d_77">
      <g>
       <use style="stroke:#000000;stroke-width:0.5;" x="54.0" xlink:href="#m728421d6d4" y="28.8"/>
      </g>
     </g>
     <g id="line2d_78">
      <g>
       <use style="stroke:#000000;stroke-width:0.5;" x="388.8" xlink:href="#mcb0005524f" y="28.8"/>
      </g>
     </g>
     <g id="text_26">
      <!-- 2500 -->
      <g transform="translate(25.946875 31.559375)scale(0.1 -0.1)">
       <use xlink:href="#DejaVuSans-32"/>
       <use x="63.623046875" xlink:href="#DejaVuSans-35"/>
       <use x="127.24609375" xlink:href="#DejaVuSans-30"/>
       <use x="190.869140625" xlink:href="#DejaVuSans-30"/>
      </g>
     </g>
    </g>
   </g>
   <g id="patch_202">
    <path d="
M54 28.8
L388.8 28.8" style="fill:none;stroke:#000000;"/>
   </g>
   <g id="patch_203">
    <path d="
M388.8 252
L388.8 28.8" style="fill:none;stroke:#000000;"/>
   </g>
   <g id="patch_204">
    <path d="
M54 252
L388.8 252" style="fill:none;stroke:#000000;"/>
   </g>
   <g id="patch_205">
    <path d="
M54 252
L54 28.8" style="fill:none;stroke:#000000;"/>
   </g>
   <g id="text_27">
    <!-- Number of Humans with place of Birth in "Germany" or "Austria"  -->
    <defs>
     <path d="
M17.9219 72.9062
L17.9219 45.7969
L9.625 45.7969
L9.625 72.9062
z

M36.375 72.9062
L36.375 45.7969
L28.0781 45.7969
L28.0781 72.9062
z
" id="DejaVuSans-22"/>
     <path id="DejaVuSans-20"/>
     <path d="
M59.5156 10.4062
L59.5156 29.9844
L43.4062 29.9844
L43.4062 38.0938
L69.2812 38.0938
L69.2812 6.78125
Q63.5781 2.73438 56.6875 0.65625
Q49.8125 -1.42188 42 -1.42188
Q24.9062 -1.42188 15.25 8.5625
Q5.60938 18.5625 5.60938 36.375
Q5.60938 54.25 15.25 64.2344
Q24.9062 74.2188 42 74.2188
Q49.125 74.2188 55.5469 72.4531
Q61.9688 70.7031 67.3906 67.2812
L67.3906 56.7812
Q61.9219 61.4219 55.7656 63.7656
Q49.6094 66.1094 42.8281 66.1094
Q29.4375 66.1094 22.7188 58.6406
Q16.0156 51.1719 16.0156 36.375
Q16.0156 21.625 22.7188 14.1562
Q29.4375 6.6875 42.8281 6.6875
Q48.0469 6.6875 52.1406 7.59375
Q56.25 8.5 59.5156 10.4062" id="DejaVuSans-47"/>
     <path d="
M34.1875 63.1875
L20.7969 26.9062
L47.6094 26.9062
z

M28.6094 72.9062
L39.7969 72.9062
L67.5781 0
L57.3281 0
L50.6875 18.7031
L17.8281 18.7031
L11.1875 0
L0.78125 0
z
" id="DejaVuSans-41"/>
     <path d="
M19.6719 34.8125
L19.6719 8.10938
L35.5 8.10938
Q43.4531 8.10938 47.2812 11.4062
Q51.125 14.7031 51.125 21.4844
Q51.125 28.3281 47.2812 31.5625
Q43.4531 34.8125 35.5 34.8125
z

M19.6719 64.7969
L19.6719 42.8281
L34.2812 42.8281
Q41.5 42.8281 45.0312 45.5312
Q48.5781 48.25 48.5781 53.8125
Q48.5781 59.3281 45.0312 62.0625
Q41.5 64.7969 34.2812 64.7969
z

M9.8125 72.9062
L35.0156 72.9062
Q46.2969 72.9062 52.3906 68.2188
Q58.5 63.5312 58.5 54.8906
Q58.5 48.1875 55.375 44.2344
Q52.25 40.2812 46.1875 39.3125
Q53.4688 37.75 57.5 32.7812
Q61.5312 27.8281 61.5312 20.4062
Q61.5312 10.6406 54.8906 5.3125
Q48.25 0 35.9844 0
L9.8125 0
z
" id="DejaVuSans-42"/>
     <path d="
M9.42188 54.6875
L18.4062 54.6875
L18.4062 0
L9.42188 0
z

M9.42188 75.9844
L18.4062 75.9844
L18.4062 64.5938
L9.42188 64.5938
z
" id="DejaVuSans-69"/>
     <path d="
M37.1094 75.9844
L37.1094 68.5
L28.5156 68.5
Q23.6875 68.5 21.7969 66.5469
Q19.9219 64.5938 19.9219 59.5156
L19.9219 54.6875
L34.7188 54.6875
L34.7188 47.7031
L19.9219 47.7031
L19.9219 0
L10.8906 0
L10.8906 47.7031
L2.29688 47.7031
L2.29688 54.6875
L10.8906 54.6875
L10.8906 58.5
Q10.8906 67.625 15.1406 71.7969
Q19.3906 75.9844 28.6094 75.9844
z
" id="DejaVuSans-66"/>
     <path d="
M56.2031 29.5938
L56.2031 25.2031
L14.8906 25.2031
Q15.4844 15.9219 20.4844 11.0625
Q25.4844 6.20312 34.4219 6.20312
Q39.5938 6.20312 44.4531 7.46875
Q49.3125 8.73438 54.1094 11.2812
L54.1094 2.78125
Q49.2656 0.734375 44.1875 -0.34375
Q39.1094 -1.42188 33.8906 -1.42188
Q20.7969 -1.42188 13.1562 6.1875
Q5.51562 13.8125 5.51562 26.8125
Q5.51562 40.2344 12.7656 48.1094
Q20.0156 56 32.3281 56
Q43.3594 56 49.7812 48.8906
Q56.2031 41.7969 56.2031 29.5938
M47.2188 32.2344
Q47.125 39.5938 43.0938 43.9844
Q39.0625 48.3906 32.4219 48.3906
Q24.9062 48.3906 20.3906 44.1406
Q15.875 39.8906 15.1875 32.1719
z
" id="DejaVuSans-65"/>
     <path d="
M9.8125 72.9062
L19.6719 72.9062
L19.6719 43.0156
L55.5156 43.0156
L55.5156 72.9062
L65.375 72.9062
L65.375 0
L55.5156 0
L55.5156 34.7188
L19.6719 34.7188
L19.6719 0
L9.8125 0
z
" id="DejaVuSans-48"/>
     <path d="
M48.7812 52.5938
L48.7812 44.1875
Q44.9688 46.2969 41.1406 47.3438
Q37.3125 48.3906 33.4062 48.3906
Q24.6562 48.3906 19.8125 42.8438
Q14.9844 37.3125 14.9844 27.2969
Q14.9844 17.2812 19.8125 11.7344
Q24.6562 6.20312 33.4062 6.20312
Q37.3125 6.20312 41.1406 7.25
Q44.9688 8.29688 48.7812 10.4062
L48.7812 2.09375
Q45.0156 0.34375 40.9844 -0.53125
Q36.9688 -1.42188 32.4219 -1.42188
Q20.0625 -1.42188 12.7812 6.34375
Q5.51562 14.1094 5.51562 27.2969
Q5.51562 40.6719 12.8594 48.3281
Q20.2188 56 33.0156 56
Q37.1562 56 41.1094 55.1406
Q45.0625 54.2969 48.7812 52.5938" id="DejaVuSans-63"/>
     <path d="
M34.2812 27.4844
Q23.3906 27.4844 19.1875 25
Q14.9844 22.5156 14.9844 16.5
Q14.9844 11.7188 18.1406 8.90625
Q21.2969 6.10938 26.7031 6.10938
Q34.1875 6.10938 38.7031 11.4062
Q43.2188 16.7031 43.2188 25.4844
L43.2188 27.4844
z

M52.2031 31.2031
L52.2031 0
L43.2188 0
L43.2188 8.29688
Q40.1406 3.32812 35.5469 0.953125
Q30.9531 -1.42188 24.3125 -1.42188
Q15.9219 -1.42188 10.9531 3.29688
Q6 8.01562 6 15.9219
Q6 25.1406 12.1719 29.8281
Q18.3594 34.5156 30.6094 34.5156
L43.2188 34.5156
L43.2188 35.4062
Q43.2188 41.6094 39.1406 45
Q35.0625 48.3906 27.6875 48.3906
Q23 48.3906 18.5469 47.2656
Q14.1094 46.1406 10.0156 43.8906
L10.0156 52.2031
Q14.9375 54.1094 19.5781 55.0469
Q24.2188 56 28.6094 56
Q40.4844 56 46.3438 49.8438
Q52.2031 43.7031 52.2031 31.2031" id="DejaVuSans-61"/>
     <path d="
M54.8906 33.0156
L54.8906 0
L45.9062 0
L45.9062 32.7188
Q45.9062 40.4844 42.875 44.3281
Q39.8438 48.1875 33.7969 48.1875
Q26.5156 48.1875 22.3125 43.5469
Q18.1094 38.9219 18.1094 30.9062
L18.1094 0
L9.07812 0
L9.07812 75.9844
L18.1094 75.9844
L18.1094 46.1875
Q21.3438 51.125 25.7031 53.5625
Q30.0781 56 35.7969 56
Q45.2188 56 50.0469 50.1719
Q54.8906 44.3438 54.8906 33.0156" id="DejaVuSans-68"/>
     <path d="
M9.8125 72.9062
L23.0938 72.9062
L55.4219 11.9219
L55.4219 72.9062
L64.9844 72.9062
L64.9844 0
L51.7031 0
L19.3906 60.9844
L19.3906 0
L9.8125 0
z
" id="DejaVuSans-4e"/>
     <path d="
M30.6094 48.3906
Q23.3906 48.3906 19.1875 42.75
Q14.9844 37.1094 14.9844 27.2969
Q14.9844 17.4844 19.1562 11.8438
Q23.3438 6.20312 30.6094 6.20312
Q37.7969 6.20312 41.9844 11.8594
Q46.1875 17.5312 46.1875 27.2969
Q46.1875 37.0156 41.9844 42.7031
Q37.7969 48.3906 30.6094 48.3906
M30.6094 56
Q42.3281 56 49.0156 48.375
Q55.7188 40.7656 55.7188 27.2969
Q55.7188 13.875 49.0156 6.21875
Q42.3281 -1.42188 30.6094 -1.42188
Q18.8438 -1.42188 12.1719 6.21875
Q5.51562 13.875 5.51562 27.2969
Q5.51562 40.7656 12.1719 48.375
Q18.8438 56 30.6094 56" id="DejaVuSans-6f"/>
     <path d="
M48.6875 27.2969
Q48.6875 37.2031 44.6094 42.8438
Q40.5312 48.4844 33.4062 48.4844
Q26.2656 48.4844 22.1875 42.8438
Q18.1094 37.2031 18.1094 27.2969
Q18.1094 17.3906 22.1875 11.75
Q26.2656 6.10938 33.4062 6.10938
Q40.5312 6.10938 44.6094 11.75
Q48.6875 17.3906 48.6875 27.2969
M18.1094 46.3906
Q20.9531 51.2656 25.2656 53.625
Q29.5938 56 35.5938 56
Q45.5625 56 51.7812 48.0938
Q58.0156 40.1875 58.0156 27.2969
Q58.0156 14.4062 51.7812 6.48438
Q45.5625 -1.42188 35.5938 -1.42188
Q29.5938 -1.42188 25.2656 0.953125
Q20.9531 3.32812 18.1094 8.20312
L18.1094 0
L9.07812 0
L9.07812 75.9844
L18.1094 75.9844
z
" id="DejaVuSans-62"/>
     <path d="
M52 44.1875
Q55.375 50.25 60.0625 53.125
Q64.75 56 71.0938 56
Q79.6406 56 84.2812 50.0156
Q88.9219 44.0469 88.9219 33.0156
L88.9219 0
L79.8906 0
L79.8906 32.7188
Q79.8906 40.5781 77.0938 44.375
Q74.3125 48.1875 68.6094 48.1875
Q61.625 48.1875 57.5625 43.5469
Q53.5156 38.9219 53.5156 30.9062
L53.5156 0
L44.4844 0
L44.4844 32.7188
Q44.4844 40.625 41.7031 44.4062
Q38.9219 48.1875 33.1094 48.1875
Q26.2188 48.1875 22.1562 43.5312
Q18.1094 38.875 18.1094 30.9062
L18.1094 0
L9.07812 0
L9.07812 54.6875
L18.1094 54.6875
L18.1094 46.1875
Q21.1875 51.2188 25.4844 53.6094
Q29.7812 56 35.6875 56
Q41.6562 56 45.8281 52.9688
Q50 49.9531 52 44.1875" id="DejaVuSans-6d"/>
     <path d="
M54.8906 33.0156
L54.8906 0
L45.9062 0
L45.9062 32.7188
Q45.9062 40.4844 42.875 44.3281
Q39.8438 48.1875 33.7969 48.1875
Q26.5156 48.1875 22.3125 43.5469
Q18.1094 38.9219 18.1094 30.9062
L18.1094 0
L9.07812 0
L9.07812 54.6875
L18.1094 54.6875
L18.1094 46.1875
Q21.3438 51.125 25.7031 53.5625
Q30.0781 56 35.7969 56
Q45.2188 56 50.0469 50.1719
Q54.8906 44.3438 54.8906 33.0156" id="DejaVuSans-6e"/>
     <path d="
M9.42188 75.9844
L18.4062 75.9844
L18.4062 0
L9.42188 0
z
" id="DejaVuSans-6c"/>
     <path d="
M32.1719 -5.07812
Q28.375 -14.8438 24.75 -17.8125
Q21.1406 -20.7969 15.0938 -20.7969
L7.90625 -20.7969
L7.90625 -13.2812
L13.1875 -13.2812
Q16.8906 -13.2812 18.9375 -11.5156
Q21 -9.76562 23.4844 -3.21875
L25.0938 0.875
L2.98438 54.6875
L12.5 54.6875
L29.5938 11.9219
L46.6875 54.6875
L56.2031 54.6875
z
" id="DejaVuSans-79"/>
     <path d="
M8.5 21.5781
L8.5 54.6875
L17.4844 54.6875
L17.4844 21.9219
Q17.4844 14.1562 20.5 10.2656
Q23.5312 6.39062 29.5938 6.39062
Q36.8594 6.39062 41.0781 11.0312
Q45.3125 15.6719 45.3125 23.6875
L45.3125 54.6875
L54.2969 54.6875
L54.2969 0
L45.3125 0
L45.3125 8.40625
Q42.0469 3.42188 37.7188 1
Q33.4062 -1.42188 27.6875 -1.42188
Q18.2656 -1.42188 13.375 4.4375
Q8.5 10.2969 8.5 21.5781
M31.1094 56
z
" id="DejaVuSans-75"/>
     <path d="
M18.3125 70.2188
L18.3125 54.6875
L36.8125 54.6875
L36.8125 47.7031
L18.3125 47.7031
L18.3125 18.0156
Q18.3125 11.3281 20.1406 9.42188
Q21.9688 7.51562 27.5938 7.51562
L36.8125 7.51562
L36.8125 0
L27.5938 0
Q17.1875 0 13.2344 3.875
Q9.28125 7.76562 9.28125 18.0156
L9.28125 47.7031
L2.6875 47.7031
L2.6875 54.6875
L9.28125 54.6875
L9.28125 70.2188
z
" id="DejaVuSans-74"/>
     <path d="
M4.20312 54.6875
L13.1875 54.6875
L24.4219 12.0156
L35.5938 54.6875
L46.1875 54.6875
L57.4219 12.0156
L68.6094 54.6875
L77.5938 54.6875
L63.2812 0
L52.6875 0
L40.9219 44.8281
L29.1094 0
L18.5 0
z
" id="DejaVuSans-77"/>
     <path d="
M18.1094 8.20312
L18.1094 -20.7969
L9.07812 -20.7969
L9.07812 54.6875
L18.1094 54.6875
L18.1094 46.3906
Q20.9531 51.2656 25.2656 53.625
Q29.5938 56 35.5938 56
Q45.5625 56 51.7812 48.0938
Q58.0156 40.1875 58.0156 27.2969
Q58.0156 14.4062 51.7812 6.48438
Q45.5625 -1.42188 35.5938 -1.42188
Q29.5938 -1.42188 25.2656 0.953125
Q20.9531 3.32812 18.1094 8.20312
M48.6875 27.2969
Q48.6875 37.2031 44.6094 42.8438
Q40.5312 48.4844 33.4062 48.4844
Q26.2656 48.4844 22.1875 42.8438
Q18.1094 37.2031 18.1094 27.2969
Q18.1094 17.3906 22.1875 11.75
Q26.2656 6.10938 33.4062 6.10938
Q40.5312 6.10938 44.6094 11.75
Q48.6875 17.3906 48.6875 27.2969" id="DejaVuSans-70"/>
     <path d="
M44.2812 53.0781
L44.2812 44.5781
Q40.4844 46.5312 36.375 47.5
Q32.2812 48.4844 27.875 48.4844
Q21.1875 48.4844 17.8438 46.4375
Q14.5 44.3906 14.5 40.2812
Q14.5 37.1562 16.8906 35.375
Q19.2812 33.5938 26.5156 31.9844
L29.5938 31.2969
Q39.1562 29.25 43.1875 25.5156
Q47.2188 21.7812 47.2188 15.0938
Q47.2188 7.46875 41.1875 3.01562
Q35.1562 -1.42188 24.6094 -1.42188
Q20.2188 -1.42188 15.4531 -0.5625
Q10.6875 0.296875 5.42188 2
L5.42188 11.2812
Q10.4062 8.6875 15.2344 7.39062
Q20.0625 6.10938 24.8125 6.10938
Q31.1562 6.10938 34.5625 8.28125
Q37.9844 10.4531 37.9844 14.4062
Q37.9844 18.0625 35.5156 20.0156
Q33.0625 21.9688 24.7031 23.7812
L21.5781 24.5156
Q13.2344 26.2656 9.51562 29.9062
Q5.8125 33.5469 5.8125 39.8906
Q5.8125 47.6094 11.2812 51.7969
Q16.75 56 26.8125 56
Q31.7812 56 36.1719 55.2656
Q40.5781 54.5469 44.2812 53.0781" id="DejaVuSans-73"/>
     <path d="
M41.1094 46.2969
Q39.5938 47.1719 37.8125 47.5781
Q36.0312 48 33.8906 48
Q26.2656 48 22.1875 43.0469
Q18.1094 38.0938 18.1094 28.8125
L18.1094 0
L9.07812 0
L9.07812 54.6875
L18.1094 54.6875
L18.1094 46.1875
Q20.9531 51.1719 25.4844 53.5781
Q30.0312 56 36.5312 56
Q37.4531 56 38.5781 55.875
Q39.7031 55.7656 41.0625 55.5156
z
" id="DejaVuSans-72"/>
    </defs>
    <g transform="translate(27.778125 10.362625)scale(0.12 -0.12)">
     <use xlink:href="#DejaVuSans-4e"/>
     <use x="74.8046875" xlink:href="#DejaVuSans-75"/>
     <use x="138.18359375" xlink:href="#DejaVuSans-6d"/>
     <use x="235.595703125" xlink:href="#DejaVuSans-62"/>
     <use x="299.072265625" xlink:href="#DejaVuSans-65"/>
     <use x="360.595703125" xlink:href="#DejaVuSans-72"/>
     <use x="401.708984375" xlink:href="#DejaVuSans-20"/>
     <use x="433.49609375" xlink:href="#DejaVuSans-6f"/>
     <use x="494.677734375" xlink:href="#DejaVuSans-66"/>
     <use x="529.8828125" xlink:href="#DejaVuSans-20"/>
     <use x="561.669921875" xlink:href="#DejaVuSans-48"/>
     <use x="636.865234375" xlink:href="#DejaVuSans-75"/>
     <use x="700.244140625" xlink:href="#DejaVuSans-6d"/>
     <use x="797.65625" xlink:href="#DejaVuSans-61"/>
     <use x="858.935546875" xlink:href="#DejaVuSans-6e"/>
     <use x="922.314453125" xlink:href="#DejaVuSans-73"/>
     <use x="974.4140625" xlink:href="#DejaVuSans-20"/>
     <use x="1006.20117188" xlink:href="#DejaVuSans-77"/>
     <use x="1087.98828125" xlink:href="#DejaVuSans-69"/>
     <use x="1115.77148438" xlink:href="#DejaVuSans-74"/>
     <use x="1154.98046875" xlink:href="#DejaVuSans-68"/>
     <use x="1218.359375" xlink:href="#DejaVuSans-20"/>
     <use x="1250.14648438" xlink:href="#DejaVuSans-70"/>
     <use x="1313.62304688" xlink:href="#DejaVuSans-6c"/>
     <use x="1341.40625" xlink:href="#DejaVuSans-61"/>
     <use x="1402.68554688" xlink:href="#DejaVuSans-63"/>
     <use x="1457.66601562" xlink:href="#DejaVuSans-65"/>
     <use x="1519.18945312" xlink:href="#DejaVuSans-20"/>
     <use x="1550.9765625" xlink:href="#DejaVuSans-6f"/>
     <use x="1612.15820312" xlink:href="#DejaVuSans-66"/>
     <use x="1647.36328125" xlink:href="#DejaVuSans-20"/>
     <use x="1679.15039062" xlink:href="#DejaVuSans-42"/>
     <use x="1747.75390625" xlink:href="#DejaVuSans-69"/>
     <use x="1775.53710938" xlink:href="#DejaVuSans-72"/>
     <use x="1816.65039062" xlink:href="#DejaVuSans-74"/>
     <use x="1855.859375" xlink:href="#DejaVuSans-68"/>
     <use x="1919.23828125" xlink:href="#DejaVuSans-20"/>
     <use x="1951.02539062" xlink:href="#DejaVuSans-69"/>
     <use x="1978.80859375" xlink:href="#DejaVuSans-6e"/>
     <use x="2042.1875" xlink:href="#DejaVuSans-20"/>
     <use x="2073.97460938" xlink:href="#DejaVuSans-22"/>
     <use x="2119.97070312" xlink:href="#DejaVuSans-47"/>
     <use x="2197.4609375" xlink:href="#DejaVuSans-65"/>
     <use x="2258.984375" xlink:href="#DejaVuSans-72"/>
     <use x="2298.34765625" xlink:href="#DejaVuSans-6d"/>
     <use x="2395.75976562" xlink:href="#DejaVuSans-61"/>
     <use x="2457.0390625" xlink:href="#DejaVuSans-6e"/>
     <use x="2520.41796875" xlink:href="#DejaVuSans-79"/>
     <use x="2579.59765625" xlink:href="#DejaVuSans-22"/>
     <use x="2625.59375" xlink:href="#DejaVuSans-20"/>
     <use x="2657.38085938" xlink:href="#DejaVuSans-6f"/>
     <use x="2718.5625" xlink:href="#DejaVuSans-72"/>
     <use x="2759.67578125" xlink:href="#DejaVuSans-20"/>
     <use x="2791.46289062" xlink:href="#DejaVuSans-22"/>
     <use x="2837.45898438" xlink:href="#DejaVuSans-41"/>
     <use x="2905.8671875" xlink:href="#DejaVuSans-75"/>
     <use x="2969.24609375" xlink:href="#DejaVuSans-73"/>
     <use x="3021.34570312" xlink:href="#DejaVuSans-74"/>
     <use x="3060.5546875" xlink:href="#DejaVuSans-72"/>
     <use x="3101.66796875" xlink:href="#DejaVuSans-69"/>
     <use x="3129.45117188" xlink:href="#DejaVuSans-61"/>
     <use x="3190.73046875" xlink:href="#DejaVuSans-22"/>
     <use x="3236.7265625" xlink:href="#DejaVuSans-20"/>
    </g>
    <!--  by Date of Birth -->
    <defs>
     <path d="
M19.6719 64.7969
L19.6719 8.10938
L31.5938 8.10938
Q46.6875 8.10938 53.6875 14.9375
Q60.6875 21.7812 60.6875 36.5312
Q60.6875 51.1719 53.6875 57.9844
Q46.6875 64.7969 31.5938 64.7969
z

M9.8125 72.9062
L30.0781 72.9062
Q51.2656 72.9062 61.1719 64.0938
Q71.0938 55.2812 71.0938 36.5312
Q71.0938 17.6719 61.125 8.82812
Q51.1719 0 30.0781 0
L9.8125 0
z
" id="DejaVuSans-44"/>
    </defs>
    <g transform="translate(172.3921875 23.8)scale(0.12 -0.12)">
     <use xlink:href="#DejaVuSans-20"/>
     <use x="31.787109375" xlink:href="#DejaVuSans-62"/>
     <use x="95.263671875" xlink:href="#DejaVuSans-79"/>
     <use x="154.443359375" xlink:href="#DejaVuSans-20"/>
     <use x="186.23046875" xlink:href="#DejaVuSans-44"/>
     <use x="263.232421875" xlink:href="#DejaVuSans-61"/>
     <use x="324.51171875" xlink:href="#DejaVuSans-74"/>
     <use x="363.720703125" xlink:href="#DejaVuSans-65"/>
     <use x="425.244140625" xlink:href="#DejaVuSans-20"/>
     <use x="457.03125" xlink:href="#DejaVuSans-6f"/>
     <use x="518.212890625" xlink:href="#DejaVuSans-66"/>
     <use x="553.41796875" xlink:href="#DejaVuSans-20"/>
     <use x="585.205078125" xlink:href="#DejaVuSans-42"/>
     <use x="653.80859375" xlink:href="#DejaVuSans-69"/>
     <use x="681.591796875" xlink:href="#DejaVuSans-72"/>
     <use x="722.705078125" xlink:href="#DejaVuSans-74"/>
     <use x="761.9140625" xlink:href="#DejaVuSans-68"/>
    </g>
   </g>
  </g>
 </g>
 <defs>
  <clipPath id="p124b8dd147">
   <rect height="223.2" width="334.8" x="54.0" y="28.8"/>
  </clipPath>
 </defs>
</svg>
